<svg xmlns="http://www.w3.org/2000/svg" width="398.134" height="426.154" viewBox="-110.951 -50.708 398.134 426.154"><g fill="#0770B8"><path d="M74.905 322.706c-.894 11.956-2.244 25.6-3.366 36.247-.558 5.323-1.068 9.896-1.428 13.138-.156 1.379-.287 2.502-.384 3.354H-4.04a3050.202 3050.202 0 0 0 9.034-28.409c2.511-8.043 5.042-16.354 7.022-23.208a326.75 326.75 0 0 0 2.473-8.978c.316-1.248.58-2.353.785-3.295.204-.948.348-1.721.421-2.376.238-2.106.379-3.991.379-5.739 0-1.876-.163-3.604-.546-5.25-.571-2.467-1.657-4.717-3.266-6.927-1.616-2.208-3.732-4.414-6.48-6.985-5.31-4.955-9.943-9.65-16.925-14.697-6.975-5.053-16.247-10.424-30.855-16.882-9.014-3.979-15.974-7.814-21.443-12.188-5.469-4.377-9.483-9.277-12.711-15.61-3.798-7.459-9.442-17.705-14.146-26.101-1.17-2.087-2.282-4.063-3.292-5.85 2.046 1.759 3.87 3.416 5.168 4.687 1.497 1.457 4.726 4.478 8.333 7.621a166.484 166.484 0 0 0 5.512 4.628c1.818 1.452 3.554 2.755 5.075 3.743.616.402 1.501 1.064 2.55 1.91 1.839 1.478 4.193 3.509 6.763 5.783 3.859 3.416 8.217 7.375 12.183 10.896a278.382 278.382 0 0 0 5.558 4.816c1.686 1.418 3.142 2.633 4.374 3.463 6.571 4.429 8.562 4.994 11.52 6.219.659.274 1.19-.588.652-1.057-7.241-6.248-14.415-10.315-30.461-26.393-2.146-2.146-4.41-3.896-6.267-5.455-1.866-1.566-3.425-2.804-4.645-3.602-1.34-.866-2.999-2.107-4.752-3.51-5.264-4.209-11.42-9.903-13.542-11.979-2.028-1.984-5.104-4.715-8.396-7.409-3.294-2.695-6.78-5.33-9.684-7.124-.957-.589-1.525-1.19-1.864-1.751a3.207 3.207 0 0 1-.478-1.713c-.005-.889.345-1.975 1.051-3.079.699-1.1 1.734-2.186 2.921-3.072 1.235-.926 2.474-1.699 4.057-2.271 1.584-.568 3.536-.947 6.211-.947 3.903-.007 9.324.821 17.039 3.047 9.381 2.701 17.194 8.608 23.279 14.115 3.044 2.749 5.648 5.39 7.847 7.478 1.101 1.043 2.1 1.958 3.037 2.688.469.373.923.696 1.389.973.464.281.938.518 1.475.673.957.282 2.291.905 3.79 1.711 2.26 1.199 4.916 2.778 7.747 4.087 2.834 1.302 5.859 2.364 9 2.389 2.338.011 7.513.224 14.049.996 6.539.773 14.457 2.111 22.33 4.362 7.693 2.195 15.232 6.469 21.375 10.81a103.777 103.777 0 0 1 8.045 6.277c2.233 1.926 3.974 3.612 5.052 4.763 2.197 2.335 5.041 5.851 7.682 9.873 2.643 4.014 5.08 8.545 6.513 12.859 1.277 3.829 1.625 7.399 1.879 10.425.131 1.513.229 2.891.438 4.152.107.631.24 1.237.438 1.824.205.589.474 1.164.89 1.699.201.258.634 1.032 1.062 2.279.659 1.873 1.38 4.812 1.978 8.973.6 4.158 1.082 9.548 1.291 16.354.024.702.035 1.471.035 2.305-.007 5.036-.401 12.272-1.004 20.24zm-181.668-175.918c-1.868-10.459-3.695-23.423-3.979-35.032-.131-5.357-.209-9.36-.209-12.461 0-3.667.112-6.06.358-7.926.25-1.871.622-3.252 1.223-5.067.159-.473.391-.858.69-1.195.449-.502 1.074-.911 1.801-1.188a6.483 6.483 0 0 1 2.28-.408c.743-.005 1.398.144 1.722.304.757.357 2.807 1.436 4.883 3.457 2.082 2.037 4.191 4.978 5.217 9.196 1.832 7.542 2.904 14.608 2.898 19.757 0 1.098-.047 2.11-.141 3.014a3.604 3.604 0 0 0-.021.424c.001.571.097 1.067.223 1.584.226.9.571 1.842.979 2.939 1.218 3.258 3.029 7.838 3.841 13.971.984 7.416 2.824 16.208 2.829 16.232l.072.35.183.299c.043.066 3.34 5.463 8.914 11.788-.313-.098-.613-.203-.931-.295-7.938-2.287-13.694-3.21-18.167-3.21-3.058 0-5.527.441-7.596 1.186-1.166.42-2.182.936-3.113 1.495a362.635 362.635 0 0 1-3.956-19.214z"/><path d="M-99.469 79.353c.594-.559 1.298-1.082 2.087-1.453a6.105 6.105 0 0 1 2.649-.606c.224 0 .454.011.694.042.734.072 1.652.377 2.617.906 1.451.796 3 2.088 4.322 3.655 1.326 1.564 2.43 3.39 3.082 5.209 1.505 4.181 1.74 7.244 1.74 8.769a10.403 10.403 0 0 1-.047 1.059l-.003.031-.122.798.472.667c.028.04 1.046 1.497 2.259 3.805 1.211 2.302 2.615 5.46 3.431 8.838.28 1.157.52 2.803.697 4.564.268 2.655.408 5.601.481 7.875a160.861 160.861 0 0 1 .078 3.583c.004.187.004.283.004.283l.001.701.435.552.093.114a203.08 203.08 0 0 1 4.638 6.168c1.042 1.453 2.09 2.96 2.922 4.268.415.653.775 1.26 1.052 1.77.277.504.465.93.53 1.135.645 1.921 1.751 4.104 3.03 6.271 1.281 2.156 2.731 4.262 4.079 5.912.542.659 1.212 1.64 1.888 2.736 1.021 1.657 2.072 3.589 2.911 5.238.419.828.782 1.591 1.064 2.204.279.612.481 1.104.537 1.278.144.415.311.664.478.906.316.444.671.822 1.104 1.261.749.757 1.722 1.63 2.847 2.646 1.68 1.524 3.69 3.342 5.657 5.347 1.967 2 3.881 4.178 5.357 6.375a454.637 454.637 0 0 1 1.954 2.922c.048.07.074.112.107.161l.204.728.996.353.024.007c.31.114 3.294 1.2 6.949 2.976 3.651 1.765 7.977 4.254 10.891 6.993a136.429 136.429 0 0 1 4.431 4.36c-2.917-.204-5.202-.277-6.619-.28-1.457-.007-3.077-.359-4.76-.96-2.526-.895-5.166-2.329-7.651-3.701-1.245-.687-2.453-1.356-3.614-1.946-1.164-.581-2.275-1.079-3.382-1.409a2.333 2.333 0 0 1-.53-.26c-.497-.293-1.211-.845-2.054-1.59-1.479-1.303-3.348-3.175-5.544-5.298-5.002-4.814-11.711-10.982-20.172-15.292-.364-.544-1.608-2.321-4.752-5.887a98.08 98.08 0 0 1-6.266-7.917 72.494 72.494 0 0 1-1.668-2.436c-.162-.252-.285-.438-.376-.583l-.005-.029c-.359-1.757-1.868-9.259-2.699-15.549-.669-5.064-1.981-9.17-3.101-12.268-.558-1.546-1.069-2.843-1.417-3.845-.175-.498-.469-.925-.55-1.248-.083-.323-.264-.547-.264-.599V120h.184c.11-1.799.233-2.39.233-3.603-.003-5.69-1.101-13.04-2.978-20.806-1.227-5.066-3.805-8.751-6.318-11.199-2.094-2.036-4.108-3.278-5.334-3.918a8.66 8.66 0 0 1 1.017-1.121zm199.802 223.114c0-.833.013-1.602.031-2.304.215-6.806.697-12.195 1.297-16.354.592-4.159 1.314-7.1 1.973-8.972.433-1.247.864-2.021 1.07-2.28.407-.535.678-1.11.882-1.699.195-.586.334-1.192.438-1.823.209-1.262.312-2.641.439-4.152.251-3.027.596-6.595 1.877-10.425 1.435-4.314 3.87-8.846 6.51-12.86 2.644-4.022 5.488-7.539 7.685-9.872 1.078-1.151 2.824-2.838 5.057-4.763a103.175 103.175 0 0 1 8.037-6.278c6.146-4.34 13.689-8.614 21.379-10.81 7.871-2.25 15.792-3.59 22.327-4.361 6.538-.774 11.718-.985 14.051-.997 3.145-.024 6.169-1.087 9.003-2.388 2.831-1.308 5.483-2.888 7.748-4.088 1.493-.804 2.831-1.428 3.784-1.711a5.909 5.909 0 0 0 1.477-.673c.465-.276.92-.6 1.39-.972.939-.731 1.936-1.646 3.034-2.688 2.197-2.089 4.807-4.73 7.851-7.479 6.083-5.509 13.895-11.413 23.278-14.114 7.713-2.227 13.138-3.056 17.039-3.049 2.671 0 4.628.379 6.212.949 1.58.57 2.821 1.343 4.056 2.27 1.185.887 2.222 1.974 2.925 3.072.702 1.104 1.056 2.189 1.048 3.079a3.234 3.234 0 0 1-.479 1.714c-.338.558-.905 1.16-1.862 1.749-2.904 1.794-6.389 4.428-9.686 7.124-3.293 2.694-6.367 5.425-8.396 7.411-2.124 2.075-8.274 7.771-13.544 11.978-1.753 1.404-3.41 2.646-4.753 3.511-1.219.796-2.773 2.034-4.638 3.601-1.861 1.56-4.128 3.306-6.273 5.455-16.047 16.078-23.217 20.146-30.464 26.394-.539.467-.005 1.332.656 1.056 2.96-1.223 4.951-1.79 11.522-6.218 1.229-.83 2.688-2.046 4.375-3.463a312.452 312.452 0 0 0 5.553-4.817c3.966-3.518 8.329-7.479 12.189-10.895 2.566-2.274 4.921-4.308 6.756-5.783 1.05-.847 1.939-1.509 2.552-1.909 1.522-.99 3.259-2.294 5.076-3.745a174.326 174.326 0 0 0 5.51-4.626c3.604-3.144 6.843-6.163 8.335-7.622 1.297-1.272 3.128-2.929 5.167-4.688l-3.295 5.852c-4.7 8.396-10.343 18.64-14.146 26.1-3.228 6.331-7.242 11.234-12.712 15.609-5.467 4.375-12.427 8.209-21.44 12.189-14.607 6.458-23.879 11.828-30.858 16.881-6.974 5.047-11.613 9.742-16.919 14.697-2.753 2.568-4.873 4.778-6.479 6.986-1.615 2.209-2.7 4.46-3.272 6.926-.381 1.646-.545 3.374-.545 5.252 0 1.748.136 3.631.38 5.737.072.655.214 1.429.418 2.378.204.94.477 2.045.793 3.294.64 2.489 1.485 5.551 2.473 8.978 1.974 6.853 4.512 15.165 7.023 23.209a2860.876 2860.876 0 0 0 9.03 28.407h-73.771l-.378-3.354c-.365-3.241-.869-7.814-1.434-13.137-1.123-10.647-2.467-24.292-3.366-36.248-.6-7.97-.996-15.206-.996-20.241zm178.701-138.094a17.918 17.918 0 0 0-3.113-1.496c-2.065-.74-4.538-1.186-7.595-1.186-4.476 0-10.226.926-18.17 3.214-.312.088-.619.197-.925.292 5.568-6.326 8.869-11.722 8.911-11.786l.179-.302.08-.347c0-.024 1.84-8.815 2.824-16.234.812-6.127 2.623-10.712 3.842-13.971.409-1.097.756-2.041.977-2.94.128-.516.226-1.013.229-1.584 0-.139-.004-.283-.025-.427-.094-.9-.145-1.908-.145-3.007-.005-5.154 1.072-12.219 2.899-19.762 1.026-4.219 3.14-7.161 5.222-9.195 2.077-2.023 4.124-3.103 4.878-3.458.325-.163.98-.313 1.724-.307a6.469 6.469 0 0 1 2.28.409c.732.277 1.355.686 1.799 1.189.302.339.536.719.693 1.2.605 1.806.971 3.186 1.223 5.059.246 1.866.361 4.261.361 7.928 0 3.101-.081 7.104-.211 12.464-.283 11.607-2.112 24.569-3.979 35.029a358.256 358.256 0 0 1-3.958 19.218z"/><path d="M276.731 78.812c-1.226.636-3.239 1.855-5.336 3.888-2.512 2.445-5.089 6.063-6.316 11.132-1.877 7.768-2.976 14.859-2.98 20.548 0 1.214.12 2.62.234 3.219h-.539v.431c0 .053.177.276.098.602-.08.323-.165.749-.337 1.246-.349 1.002-.787 2.298-1.345 3.846-1.115 3.098-2.396 7.202-3.061 12.269-.835 6.288-2.323 13.796-2.682 15.546 0 .016.005.02.005.031-.09.144-.209.33-.373.582-.379.577-.936 1.41-1.669 2.437a97.958 97.958 0 0 1-6.265 7.915c-3.142 3.565-4.389 5.343-4.753 5.889-8.463 4.314-15.173 10.479-20.171 15.297-2.193 2.124-4.066 3.992-5.544 5.294-.841.744-1.559 1.297-2.057 1.591-.259.16-.455.237-.528.256-1.105.331-2.216.828-3.379 1.412-1.164.587-2.371 1.26-3.613 1.943-2.483 1.376-5.126 2.809-7.652 3.702-1.686.601-3.298.954-4.758.961-1.42.014-3.701.085-6.618.28a139.49 139.49 0 0 1 4.428-4.355c2.918-2.74 7.246-5.226 10.894-6.997 3.656-1.774 6.637-2.863 6.944-2.976l.03-.007.997-.354.203-.726c.032-.049.061-.091.104-.163.282-.42.841-1.26 1.957-2.922 1.479-2.192 3.39-4.376 5.362-6.373 1.962-2.004 3.972-3.823 5.651-5.348 1.13-1.013 2.101-1.892 2.85-2.646.434-.438.786-.816 1.106-1.262.162-.238.327-.491.472-.904.055-.174.259-.666.535-1.278a75.136 75.136 0 0 1 3.978-7.436c.672-1.104 1.346-2.084 1.885-2.743 1.352-1.649 2.804-3.757 4.083-5.909 1.278-2.167 2.389-4.352 3.03-6.273.065-.202.249-.629.526-1.134.276-.509.637-1.115 1.058-1.77.827-1.309 1.872-2.814 2.916-4.266a208.558 208.558 0 0 1 4.644-6.17c.062-.071.091-.113.091-.113l.435-.553.006-.702v-.283c0-.18.008-.45.012-.792.013-.686.03-1.652.067-2.79.072-2.27.215-5.223.479-7.875.18-1.765.417-3.407.697-4.567.821-3.381 2.219-6.529 3.431-8.839 1.213-2.305 2.235-3.763 2.255-3.805l.477-.665-.12-.799-.007-.029a2.175 2.175 0 0 1-.018-.192c-.012-.181-.032-.475-.032-.871 0-1.523.237-4.585 1.741-8.77.653-1.811 1.76-3.642 3.084-5.208 1.32-1.56 2.87-2.856 4.322-3.648.965-.533 1.877-.835 2.615-.913.243-.029.468-.042.697-.042.99.007 1.853.233 2.646.604.788.375 1.493.897 2.089 1.453.386.369.736.738 1.019 1.094zM123.907 66.76l.076-.022-1.569.438 1.493-.416z"/><path d="M138.163 108.603v.006c-.598 10.208-2.965 21.033-9.846 30.858-1.204 1.729-2.436 2.987-3.857 3.823-1.417.828-2.906 1.224-4.315 1.224a7.524 7.524 0 0 1-5.203-2.07c-1.342-1.272-2.187-3.054-2.187-5.005-.005-1.164.308-2.372.957-3.505 2.814-4.945 4.808-8.204 6.45-11.668 1.644-3.467 2.985-7.19 4.491-13.195.498-1.986 1.746-3.542 3.228-4.575 1.482-1.031 3.211-1.596 4.908-1.602 1.04 0 2.077.214 3.01.739.93.51 1.664 1.362 2.105 2.442.302.722.384 1.531.384 2.396l-.125.132zm-16.958-43.535a4.025 4.025 0 0 1 1.093-1.188 5.082 5.082 0 0 1 3.023-.978 4.659 4.659 0 0 1 2.312.583c.745.405 1.419 1.055 1.899 1.884 3.983 6.853 7.279 14.558 7.759 24.88.005.146.012.282.012.427a7.705 7.705 0 0 1-.618 3.074 6.936 6.936 0 0 1-1.631 2.297 7.026 7.026 0 0 1-4.713 1.854c-.966 0-1.938-.215-2.807-.69a4.94 4.94 0 0 1-2.088-2.226 5.69 5.69 0 0 1-.522-2.185c-.342-7.518-1.338-15.333-4.082-25.187a3.26 3.26 0 0 1 .363-2.545zm28.291 2.6c-7.13-18.147-18.262-36.723-29.605-55.811-11.342-19.087-22.896-38.69-30.905-58.805l-1.501-3.76-1.532 3.747C74.829-19.681 57.938 6.124 43.771 30.97c-7.083 12.428-13.486 24.617-18.136 36.669-4.647 12.05-7.538 23.974-7.538 35.845 0 .833.012 1.675.041 2.507.673 19.146 8.437 36.513 20.843 49.093 12.404 12.579 29.483 20.378 48.676 20.373 38.377 0 69.489-31.091 69.523-69.458.032-.84.042-1.675.042-2.515.003-11.783-2.971-23.712-7.726-35.816z"/></g></svg>