<svg xmlns="http://www.w3.org/2000/svg" width="239.81" height="256.686" viewBox="0 0 239.81 256.686"><g fill="#0770B8"><path d="M111.947 224.919c-.538 7.201-1.352 15.42-2.027 21.833-.336 3.206-.644 5.961-.861 7.913-.093.831-.173 1.507-.231 2.021H64.396c.979-3.029 3.188-9.887 5.442-17.112 1.512-4.844 3.037-9.851 4.229-13.979a190.621 190.621 0 0 0 1.489-5.407c.191-.752.35-1.417.473-1.985.123-.571.21-1.037.254-1.431.144-1.269.228-2.404.228-3.456 0-1.131-.097-2.172-.329-3.163-.343-1.486-.998-2.841-1.966-4.172-.974-1.33-2.248-2.66-3.904-4.208-3.198-2.985-5.989-5.813-10.194-8.853-4.201-3.043-9.786-6.278-18.585-10.168-5.43-2.397-9.622-4.707-12.916-7.342-3.294-2.635-5.712-5.588-7.656-9.402-2.288-4.493-5.688-10.664-8.521-15.721-.705-1.258-1.375-2.447-1.983-3.524a68.453 68.453 0 0 1 3.113 2.823c.901.878 2.847 2.697 5.02 4.591 1.085.947 2.225 1.913 3.32 2.787 1.095.875 2.141 1.659 3.057 2.255.371.242.904.641 1.536 1.15 1.107.89 2.525 2.114 4.073 3.484 2.324 2.057 4.949 4.442 7.338 6.562a170.082 170.082 0 0 0 3.347 2.902c1.016.853 1.893 1.586 2.635 2.086 3.958 2.667 5.157 3.007 6.939 3.745.397.166.717-.354.392-.636-4.361-3.764-8.682-6.214-18.347-15.898-1.292-1.293-2.657-2.346-3.775-3.286-1.124-.943-2.063-1.688-2.798-2.169-.807-.521-1.806-1.269-2.862-2.114-3.171-2.535-6.879-5.965-8.157-7.215-1.222-1.196-3.074-2.841-5.057-4.464-1.984-1.623-4.084-3.21-5.833-4.291-.576-.354-.919-.716-1.123-1.053a1.93 1.93 0 0 1-.288-1.033c-.003-.535.208-1.189.633-1.854.421-.662 1.045-1.316 1.76-1.851.744-.557 1.49-1.023 2.443-1.367.954-.343 2.13-.571 3.741-.571 2.351-.004 5.616.495 10.263 1.836 5.65 1.627 10.356 5.184 14.021 8.502 1.834 1.655 3.403 3.246 4.727 4.504.663.628 1.265 1.178 1.829 1.619.282.224.556.419.837.586.279.169.564.311.888.405.576.17 1.38.545 2.283 1.03 1.361.723 2.961 1.674 4.666 2.462 1.707.784 3.529 1.424 5.421 1.439 1.408.007 4.525.134 8.462.6 3.938.466 8.708 1.272 13.45 2.627 4.634 1.323 9.175 3.897 12.875 6.511a62.752 62.752 0 0 1 4.846 3.781c1.344 1.16 2.393 2.176 3.043 2.869 1.323 1.407 3.036 3.524 4.627 5.947 1.591 2.418 3.059 5.147 3.922 7.746.77 2.306.979 4.457 1.132 6.279.079.911.138 1.741.264 2.501.064.38.144.745.264 1.099.123.354.285.701.536 1.023.121.155.382.622.639 1.373.397 1.128.831 2.899 1.192 5.404s.651 5.751.777 9.851c.015.423.022.886.022 1.388-.002 3.034-.24 7.391-.603 12.191zM2.522 118.958c-1.125-6.3-2.225-14.108-2.396-21.1C.047 94.631 0 92.22 0 90.352c0-2.209.067-3.651.216-4.775.15-1.127.374-1.959.736-3.051.096-.286.235-.517.416-.72.27-.303.646-.549 1.085-.716a3.909 3.909 0 0 1 1.373-.246c.447-.003.842.087 1.037.184.456.214 1.69.864 2.941 2.082a11.369 11.369 0 0 1 3.143 5.539c1.104 4.543 1.749 8.798 1.746 11.9 0 .661-.028 1.272-.085 1.815-.01.086-.013.173-.013.256.001.344.059.643.135.954.136.542.344 1.11.59 1.771.733 1.962 1.824 4.721 2.314 8.415.592 4.467 1.701 9.763 1.704 9.777l.043.21.11.181c.026.04 2.012 3.29 5.369 7.1-.188-.059-.369-.123-.56-.178-4.782-1.377-8.248-1.934-10.943-1.934-1.842 0-3.329.267-4.575.715-.702.253-1.314.564-1.875.9a217.684 217.684 0 0 1-2.385-11.573z"/><path d="M6.916 78.34a4.91 4.91 0 0 1 1.257-.875 3.677 3.677 0 0 1 2.013-.34c.443.043.995.228 1.576.546.874.48 1.807 1.258 2.604 2.201.799.943 1.464 2.042 1.856 3.138.907 2.519 1.048 4.363 1.048 5.281 0 .238-.009.416-.018.524l-.01.115-.002.018-.073.481.284.401c.017.025.63.903 1.36 2.292.73 1.387 1.575 3.289 2.067 5.324.169.697.313 1.688.42 2.75.161 1.598.246 3.373.29 4.743a99.424 99.424 0 0 1 .049 2.328l.001.422.262.333.056.068c.274.351 1.535 1.967 2.794 3.716a58.082 58.082 0 0 1 1.76 2.57c.25.394.466.759.633 1.066.167.303.281.56.32.683.388 1.157 1.054 2.473 1.825 3.778.771 1.298 1.644 2.567 2.457 3.561.326.397.729.987 1.137 1.648a46.341 46.341 0 0 1 1.753 3.155c.252.499.471.958.641 1.327.168.369.29.665.323.77.087.25.188.401.288.546.191.268.405.495.665.76.452.455 1.038.982 1.715 1.594 1.012.918 2.223 2.013 3.408 3.221 1.184 1.204 2.337 2.516 3.226 3.839a238.154 238.154 0 0 1 1.177 1.76c.029.042.045.068.064.097l.123.438.6.213.015.004c.186.069 1.984.723 4.185 1.792 2.199 1.063 4.805 2.563 6.56 4.212a82.269 82.269 0 0 1 2.669 2.627 62.375 62.375 0 0 0-3.987-.169c-.878-.004-1.853-.217-2.867-.578-1.521-.539-3.111-1.403-4.608-2.23-.75-.413-1.478-.817-2.177-1.172-.701-.35-1.37-.65-2.037-.849a1.391 1.391 0 0 1-.319-.156c-.299-.177-.73-.509-1.238-.958-.89-.784-2.016-1.912-3.34-3.191-3.012-2.9-7.053-6.615-12.15-9.211-.219-.328-.969-1.398-2.862-3.546a59.142 59.142 0 0 1-3.775-4.768 45.744 45.744 0 0 1-1.005-1.467l-.226-.351-.003-.018c-.217-1.059-1.125-5.577-1.626-9.365-.403-3.051-1.193-5.524-1.868-7.39-.336-.932-.644-1.713-.854-2.316-.105-.3-.282-.557-.331-.752-.05-.195-.159-.329-.159-.361v.203h.11c.067-1.084.141-1.439.141-2.169-.002-3.427-.663-7.855-1.794-12.533-.739-3.05-2.292-5.27-3.806-6.745a14.061 14.061 0 0 0-3.212-2.36c.166-.213.375-.455.615-.675zm120.347 134.389c0-.502.008-.965.019-1.388.13-4.1.42-7.346.781-9.851.357-2.505.792-4.276 1.189-5.404.26-.751.52-1.218.644-1.373.245-.322.408-.669.531-1.023.118-.354.202-.719.264-1.099.126-.76.188-1.59.265-2.501.151-1.823.359-3.973 1.131-6.279.864-2.599 2.331-5.328 3.921-7.746 1.592-2.423 3.305-4.541 4.628-5.947.65-.693 1.702-1.709 3.046-2.869a62.543 62.543 0 0 1 4.841-3.781c3.702-2.614 8.246-5.188 12.877-6.511 4.741-1.355 9.513-2.162 13.449-2.627 3.938-.466 7.058-.593 8.463-.6 1.895-.015 3.716-.655 5.423-1.439 1.705-.788 3.303-1.739 4.667-2.462.899-.484 1.705-.86 2.279-1.03.326-.094.611-.235.89-.405.279-.167.554-.362.836-.586.566-.441 1.167-.991 1.828-1.619 1.323-1.258 2.896-2.849 4.729-4.504 3.664-3.319 8.369-6.875 14.021-8.502 4.646-1.341 7.913-1.84 10.264-1.836 1.608 0 2.787.228 3.741.571.951.344 1.699.81 2.443 1.367.713.535 1.338 1.189 1.761 1.851.424.665.637 1.319.632 1.854a1.958 1.958 0 0 1-.288 1.033c-.204.336-.546.699-1.122 1.053-1.749 1.081-3.849 2.667-5.834 4.291-1.984 1.623-3.835 3.268-5.057 4.464-1.279 1.25-4.984 4.681-8.158 7.215-1.056.846-2.054 1.594-2.863 2.114-.734.48-1.67 1.226-2.793 2.169-1.121.94-2.487 1.992-3.779 3.286-9.666 9.685-13.984 12.135-18.349 15.898-.325.281-.003.802.395.636 1.782-.737 2.982-1.078 6.941-3.745.74-.5 1.618-1.233 2.634-2.086a180.029 180.029 0 0 0 3.345-2.902c2.389-2.119 5.017-4.505 7.342-6.562 1.546-1.37 2.964-2.595 4.069-3.484a21.627 21.627 0 0 1 1.537-1.15c.917-.596 1.963-1.381 3.058-2.255a104.96 104.96 0 0 0 3.318-2.787c2.172-1.894 4.122-3.712 5.021-4.591.781-.766 1.884-1.764 3.112-2.823l-1.984 3.524c-2.831 5.058-6.231 11.228-8.521 15.721-1.944 3.813-4.362 6.767-7.656 9.402-3.293 2.635-7.485 4.945-12.915 7.342-8.798 3.89-14.383 7.125-18.587 10.168-4.2 3.04-6.995 5.868-10.19 8.853-1.659 1.547-2.936 2.878-3.904 4.208-.972 1.331-1.626 2.686-1.97 4.172-.23.991-.328 2.032-.328 3.163 0 1.052.082 2.187.228 3.456.044.394.129.86.252 1.431.123.568.287 1.233.478 1.985.384 1.5.894 3.343 1.489 5.407 1.189 4.128 2.718 9.135 4.23 13.979a1696.351 1696.351 0 0 0 5.44 17.112h-44.435l-.227-2.021c-.22-1.952-.524-4.707-.864-7.913-.676-6.413-1.486-14.632-2.027-21.833-.362-4.801-.601-9.158-.601-12.191zM234.9 129.55a10.733 10.733 0 0 0-1.875-.9c-1.244-.447-2.733-.715-4.574-.715-2.696 0-6.159.557-10.944 1.935-.188.054-.373.119-.558.177 3.354-3.81 5.343-7.06 5.368-7.1l.108-.181.047-.209c0-.015 1.109-5.31 1.702-9.778.489-3.691 1.58-6.453 2.314-8.416.246-.661.455-1.229.588-1.771.077-.311.136-.61.139-.954 0-.083-.003-.17-.016-.257a17.45 17.45 0 0 1-.087-1.811c-.003-3.105.646-7.36 1.746-11.904a11.363 11.363 0 0 1 3.146-5.538c1.251-1.219 2.484-1.869 2.938-2.083.195-.098.59-.188 1.038-.184.444-.003.937.08 1.373.246.442.167.817.413 1.084.716.182.205.323.433.417.723.365 1.088.585 1.919.737 3.047.148 1.124.217 2.566.217 4.775 0 1.869-.048 4.28-.127 7.508-.17 6.991-1.272 14.799-2.396 21.1a216.584 216.584 0 0 1-2.385 11.574z"/><path d="M233.513 78.014a13.822 13.822 0 0 0-3.213 2.342 13.776 13.776 0 0 0-3.805 6.705c-1.131 4.678-1.792 8.95-1.795 12.377 0 .73.072 1.577.141 1.938h-.325v.26c0 .032.107.166.059.362-.048.195-.1.451-.203.751-.21.604-.474 1.384-.81 2.317-.672 1.866-1.443 4.338-1.844 7.389-.502 3.788-1.399 8.31-1.615 9.365 0 .008.003.011.003.018-.054.087-.126.199-.224.351-.229.347-.564.849-1.005 1.467a59.096 59.096 0 0 1-3.774 4.768c-1.892 2.147-2.643 3.218-2.863 3.547-5.098 2.599-9.139 6.312-12.149 9.214-1.322 1.279-2.45 2.404-3.34 3.188-.506.448-.939.781-1.239.958a1.357 1.357 0 0 1-.318.155c-.666.199-1.335.499-2.035.85-.701.354-1.428.759-2.177 1.171-1.495.828-3.087 1.691-4.608 2.23-1.016.362-1.988.575-2.866.579-.856.007-2.23.05-3.987.169a83.232 83.232 0 0 1 2.667-2.624c1.758-1.651 4.364-3.148 6.562-4.214 2.202-1.07 3.997-1.725 4.182-1.793l.019-.004.6-.213.123-.437c.019-.029.036-.054.062-.098.17-.253.507-.759 1.179-1.76.89-1.32 2.042-2.636 3.229-3.839 1.182-1.207 2.393-2.303 3.405-3.221.68-.61 1.265-1.139 1.716-1.594.261-.264.474-.492.666-.76.098-.144.198-.296.285-.545.033-.105.156-.401.322-.77a45.099 45.099 0 0 1 2.396-4.479c.405-.665.811-1.255 1.136-1.652.813-.994 1.688-2.263 2.459-3.56.77-1.305 1.438-2.621 1.825-3.778.039-.122.151-.379.318-.683.166-.307.382-.672.636-1.066a54.144 54.144 0 0 1 1.757-2.57 122.496 122.496 0 0 1 2.797-3.715c.036-.043.055-.069.055-.069l.261-.333.003-.423v-.17c0-.108.005-.271.008-.477.007-.413.018-.995.04-1.681.044-1.367.129-3.145.288-4.743.109-1.063.251-2.053.42-2.751.495-2.036 1.337-3.933 2.067-5.324.73-1.388 1.346-2.267 1.358-2.292l.287-.401-.072-.481-.004-.018a6.991 6.991 0 0 1-.03-.639c0-.918.142-2.762 1.049-5.282.393-1.091 1.059-2.194 1.857-3.137.795-.94 1.728-1.721 2.603-2.197.582-.322 1.131-.503 1.576-.55a3.38 3.38 0 0 1 .42-.026 3.736 3.736 0 0 1 1.593.365c.475.225.9.54 1.259.875.233.221.443.444.613.658zm-92.05-7.259l.046-.014-.946.264.9-.25z"/><path d="M150.05 95.958v.004c-.361 6.149-1.787 12.669-5.931 18.587-.726 1.041-1.467 1.8-2.323 2.303-.854.499-1.751.737-2.6.737a4.53 4.53 0 0 1-3.134-1.247 4.161 4.161 0 0 1-1.317-3.015 4.216 4.216 0 0 1 .576-2.111c1.695-2.978 2.896-4.941 3.885-7.027.99-2.089 1.798-4.331 2.705-7.949.3-1.196 1.052-2.133 1.944-2.754.893-.622 1.934-.962 2.956-.965.626 0 1.251.129 1.813.445.56.307 1.003.82 1.268 1.471.182.434.232.922.232 1.442l-.074.079zm-10.215-26.222c.174-.292.402-.528.658-.716a3.065 3.065 0 0 1 1.821-.589c.461-.004.943.101 1.393.351.448.245.854.636 1.143 1.135 2.4 4.128 4.385 8.769 4.674 14.987.003.087.007.169.007.256 0 .676-.134 1.302-.372 1.852a4.178 4.178 0 0 1-.983 1.384 4.235 4.235 0 0 1-2.838 1.117c-.582 0-1.167-.13-1.691-.416a2.98 2.98 0 0 1-1.258-1.341 3.43 3.43 0 0 1-.314-1.316c-.206-4.529-.806-9.236-2.459-15.171a1.963 1.963 0 0 1 .219-1.533zm17.041 1.566c-4.295-10.931-11-22.119-17.832-33.617-6.832-11.496-13.791-23.304-18.616-35.42L119.524 0l-.923 2.257c-6.7 16.432-16.874 31.975-25.407 46.94-4.267 7.486-8.123 14.828-10.924 22.087-2.799 7.258-4.54 14.441-4.54 21.591 0 .502.007 1.009.025 1.51.405 11.532 5.082 21.993 12.554 29.57 7.472 7.576 17.759 12.275 29.32 12.272 23.115 0 41.855-18.728 41.876-41.837.019-.506.025-1.009.025-1.515.001-7.097-1.791-14.283-4.654-21.573z"/></g></svg>