<svg xmlns="http://www.w3.org/2000/svg" width="109.211" height="38.361" viewBox="0 0 109.211 38.361"><path d="M63.746 12.446c-1.844-1.727-4.238-2.603-7.117-2.603-1.304 0-2.629.295-3.936.875-.998.444-1.857.994-2.563 1.643v-1.978h-4.125v24.735h4.125v-9.816a9.382 9.382 0 0 0 2.61 1.756 9.308 9.308 0 0 0 3.889.869c2.773 0 5.141-.887 7.037-2.637 1.904-1.756 2.869-3.893 2.869-6.354 0-2.572-.937-4.756-2.789-6.49m-1.435 6.422c0 1.681-.553 3.015-1.691 4.083-1.129 1.057-2.605 1.592-4.389 1.592-1.64 0-3.084-.563-4.292-1.674-1.218-1.119-1.809-2.428-1.809-4.001 0-1.618.582-2.932 1.776-4.016 1.188-1.078 2.629-1.625 4.283-1.625 1.85 0 3.35.53 4.459 1.577 1.12 1.055 1.663 2.384 1.663 4.064m22.556-6.44a9.058 9.058 0 0 0-2.582-1.735 9.42 9.42 0 0 0-3.877-.849c-2.771 0-5.137.881-7.025 2.618-1.898 1.745-2.861 3.877-2.861 6.337 0 2.575.936 4.764 2.779 6.506 1.836 1.742 4.229 2.623 7.107 2.623 1.305 0 2.609-.287 3.877-.848.98-.438 1.846-1 2.582-1.678v1.984h4.125V10.384h-4.125v2.044zm0 6.44c0 1.619-.578 2.941-1.77 4.035-1.18 1.088-2.611 1.641-4.252 1.641-1.848 0-3.348-.535-4.455-1.592-1.119-1.066-1.664-2.402-1.664-4.083 0-1.68.545-3.008 1.67-4.063 1.117-1.047 2.588-1.578 4.369-1.578 1.643 0 3.086.558 4.295 1.659 1.215 1.107 1.807 2.409 1.807 3.981m22.535-7.279c-1.197-1.158-2.879-1.745-4.992-1.745-2.086 0-4.021.714-5.762 2.126V1.327h-4.125v26.06h4.125v-11.42c1.582-1.818 3.246-2.74 4.945-2.74 1.221 0 2.117.288 2.664.858.549.574.828 1.533.828 2.85v10.452h4.125V16.186c.001-1.89-.606-3.437-1.808-4.597M3.361 35.012L.553 36.465a1 1 0 0 0-.54.891 1.004 1.004 0 0 0 1.893.467l1.455-2.811zm34.622 2.14l-1.772-.926.923 1.789a.638.638 0 1 0 .849-.863M5.482 5.495L3.118.925A1.645 1.645 0 0 0 1.656.028a1.644 1.644 0 0 0-.803 3.077l4.629 2.39zM38.064.029a.362.362 0 0 0-.314.181l-.546 1.047 1.04-.547a.363.363 0 0 0-.18-.681m.286 14.574C38.35 6.538 31.812 0 23.747 0a9.128 9.128 0 0 0-8.983 7.507 6.55 6.55 0 0 0-4.001-1.363C4.818 6.144 0 11.12 0 17.258c0 8.539 5.744 15.691 13.454 17.572.551.137 1.217.396 1.818.688a.64.64 0 0 1 .205.994v.002a1.087 1.087 0 0 0-.252.699c0 .586.46 1.064 1.03 1.064a.98.98 0 0 0 .154-.012c12.27-.915 21.941-11.16 21.941-23.662M23.611 31.168a34.632 34.632 0 0 1-6.69-20.517h.007c0-3.78 2.968-6.845 6.629-6.845 5.857 0 10.605 4.904 10.605 10.952 0 7.383-4.352 13.713-10.551 16.41z" fill="#FFF"/></svg>