<svg xmlns="http://www.w3.org/2000/svg" width="278.844" height="366.459" viewBox="0 0 278.844 366.459"><path fill="#0770B8" d="M246.318 118.475H19.158c-5.045 0-8.549-5.015-6.821-9.752L50.287 4.771A7.268 7.268 0 0 1 57.109 0h151.26a7.26 7.26 0 0 1 6.822 4.771l37.948 103.952c1.732 4.738-1.78 9.752-6.821 9.752z"/><path fill="#0770B8" d="M74.599 236.95H57.045V99.827h17.554zm129.753 0h-17.549V99.827h17.549z"/><path fill="#0770B8" d="M257.247 244.096H7.132a7.131 7.131 0 1 1 0-14.263h250.114a7.13 7.13 0 0 1 7.129 7.13 7.13 7.13 0 0 1-7.128 7.133zM139.89 138.995h-9.177l-10.048 41.2h9.185zm-12.358 0h-9.178l-10.042 41.2h9.176zm-12.357 0h-9.179l-10.046 41.2h9.184zm-31.578 41.2h9.175l10.048-41.2h-9.181zm68.655-41.2h-9.187l-10.038 41.2h9.175zm-61.791 0H65.556v41.2h14.859zm89.681 0l-10.045 41.2h25.836v-41.2zm-15.539 0h-9.175l-10.046 41.2h9.181zm12.363 0h-9.183l-10.044 41.2h9.18zm24.642 30.191h29.347a3.4 3.4 0 0 1 3.4 3.397v17.92a3.398 3.398 0 0 0 3.396 3.398h37.69a3.401 3.401 0 0 0 3.402-3.398 3.4 3.4 0 0 0-3.402-3.396h-30.896a3.4 3.4 0 0 1-3.396-3.4v-17.918a3.397 3.397 0 0 0-3.396-3.397h-32.748a3.396 3.396 0 0 0-3.396 3.397l-.001 3.397zm-141.496-6.795H29.523a3.398 3.398 0 0 0 0 6.795h30.589m186.155 197.273H21.958a5.683 5.683 0 0 1-5.685-5.679V253.064a5.684 5.684 0 0 1 5.685-5.682h224.31a5.682 5.682 0 0 1 5.677 5.682V360.78a5.683 5.683 0 0 1-5.678 5.679z"/><g fill="#0770B8"><path d="M238.483 358.402H30.267a4.405 4.405 0 0 1-4.4-4.403v-66.097h217.021v66.097a4.406 4.406 0 0 1-4.405 4.403z"/><path d="M30.271 257.167h208.216c2.427 0 4.4 1.973 4.4 4.403v28.332H25.866V261.57a4.405 4.405 0 0 1 4.405-4.403z"/></g></svg>