<svg xmlns="http://www.w3.org/2000/svg" width="190.017" height="249.722" viewBox="0 116.737 190.017 249.722"><path fill="#0770B8" d="M167.853 197.472H13.055c-3.438 0-5.825-3.418-4.648-6.646l25.861-70.838a4.952 4.952 0 0 1 4.649-3.251h103.075a4.945 4.945 0 0 1 4.648 3.251l25.86 70.838c1.181 3.229-1.214 6.646-4.647 6.646z"/><path fill="#0770B8" d="M50.835 278.206H38.873v-93.441h11.962zm88.419 0h-11.958v-93.441h11.958z"/><path fill="#0770B8" d="M175.3 283.075H4.86a4.86 4.86 0 0 1 0-9.718h170.439a4.857 4.857 0 0 1 4.857 4.858 4.856 4.856 0 0 1-4.856 4.86zm-79.973-71.621h-6.253l-6.847 28.076h6.259zm-8.421 0h-6.254l-6.844 28.076h6.253zm-8.42 0h-6.255l-6.846 28.076h6.258zM56.967 239.53h6.252l6.847-28.076H63.81zm46.784-28.076h-6.26l-6.84 28.076h6.252zm-42.107 0H44.673v28.076h10.126zm61.113 0l-6.845 28.076h17.605v-28.076zm-10.589 0h-6.252L99.07 239.53h6.256zm8.425 0h-6.258l-6.845 28.076h6.256zm16.792 20.574h19.999a2.316 2.316 0 0 1 2.316 2.314v12.212a2.316 2.316 0 0 0 2.315 2.315h25.684a2.317 2.317 0 0 0 2.318-2.315 2.316 2.316 0 0 0-2.318-2.314h-21.054a2.317 2.317 0 0 1-2.314-2.317v-12.21a2.314 2.314 0 0 0-2.314-2.314H139.7a2.313 2.313 0 0 0-2.314 2.314l-.001 2.315zm-96.422-4.63H20.118a2.316 2.316 0 0 0 0 4.629h20.844m126.856 134.432H14.964a3.872 3.872 0 0 1-3.874-3.869v-73.403a3.872 3.872 0 0 1 3.874-3.871h152.854a3.87 3.87 0 0 1 3.868 3.871v73.403a3.871 3.871 0 0 1-3.868 3.869z"/><g fill="#0770B8"><path d="M162.513 360.969H20.625a3.002 3.002 0 0 1-2.999-3.001v-45.04h147.888v45.04a3.002 3.002 0 0 1-3.001 3.001z"/><path d="M20.628 291.982h141.887c1.654 0 3 1.345 3 3.001v19.307H17.627v-19.307a3 3 0 0 1 3.001-3.001z"/></g></svg>