<svg xmlns="http://www.w3.org/2000/svg" width="278.844" height="366.459" viewBox="0 -33.496 278.844 366.459"><path fill="#0770B8" d="M246.318 84.98H19.158c-5.044 0-8.548-5.015-6.821-9.752l37.95-103.952a7.268 7.268 0 0 1 6.822-4.771h151.259a7.262 7.262 0 0 1 6.823 4.771l37.948 103.952c1.732 4.738-1.78 9.752-6.821 9.752z"/><path fill="#0770B8" d="M74.599 203.455H57.045V66.332h17.554zm129.753 0h-17.549V66.332h17.549z"/><path fill="#0770B8" d="M257.247 210.6H7.132a7.132 7.132 0 0 1 0-14.262h250.114a7.129 7.129 0 0 1 7.129 7.13 7.128 7.128 0 0 1-7.128 7.132zM139.89 105.5h-9.177l-10.048 41.2h9.185zm-12.358 0h-9.178l-10.042 41.2h9.176zm-12.357 0h-9.179L95.95 146.7h9.184zm-31.578 41.2h9.175l10.048-41.2h-9.181zm68.655-41.2h-9.187l-10.038 41.2h9.175zm-61.791 0H65.556v41.2h14.859zm89.681 0l-10.045 41.2h25.836v-41.2zm-15.539 0h-9.175l-10.046 41.2h9.181zm12.363 0h-9.183l-10.044 41.2h9.18zm24.642 30.191h29.346a3.4 3.4 0 0 1 3.401 3.397v17.92a3.398 3.398 0 0 0 3.396 3.398h37.691a3.401 3.401 0 0 0 3.402-3.398 3.4 3.4 0 0 0-3.402-3.397h-30.896a3.4 3.4 0 0 1-3.396-3.4v-17.918a3.397 3.397 0 0 0-3.397-3.397h-32.748a3.396 3.396 0 0 0-3.396 3.397v3.398h-.001zm-141.496-6.795H29.523a3.399 3.399 0 0 0 0 6.795h30.589m186.155 197.273H21.958a5.683 5.683 0 0 1-5.684-5.679V219.57a5.683 5.683 0 0 1 5.684-5.682h224.31a5.681 5.681 0 0 1 5.677 5.682v107.715a5.683 5.683 0 0 1-5.678 5.679z"/><path fill="#FFF" d="M238.483 324.907H30.267a4.405 4.405 0 0 1-4.401-4.403v-26.332h217.021v26.332a4.405 4.405 0 0 1-4.404 4.403z"/></svg>