<svg xmlns="http://www.w3.org/2000/svg" width="190.005" height="249.705" viewBox="0 0 190.005 249.705"><path fill="#0770B8" d="M167.841 80.729H13.054c-3.437 0-5.825-3.417-4.648-6.645L34.265 3.251A4.952 4.952 0 0 1 38.913 0h103.068a4.948 4.948 0 0 1 4.648 3.251l25.859 70.833c1.181 3.229-1.212 6.645-4.647 6.645z"/><path fill="#0770B8" d="M50.831 161.458h-11.96V68.022h11.96v93.436zm88.413 0h-11.956V68.022h11.956v93.436z"/><path fill="#0770B8" d="M175.288 166.326H4.86A4.86 4.86 0 0 1 0 161.467a4.86 4.86 0 0 1 4.86-4.859h170.428a4.857 4.857 0 0 1 4.857 4.859 4.857 4.857 0 0 1-4.857 4.859zM95.321 94.711h-6.253l-6.848 28.074h6.259l6.842-28.074zm-8.421 0h-6.254l-6.843 28.074h6.253L86.9 94.711zm-8.42 0h-6.255l-6.845 28.074h6.258l6.842-28.074zm-21.517 28.074h6.252l6.846-28.074h-6.256l-6.842 28.074zm46.781-28.074h-6.259l-6.841 28.074h6.252l6.848-28.074zm-42.104 0H44.67v28.074h10.125l6.845-28.074zm61.109 0l-6.845 28.074h17.604V94.711h-10.759zm-10.588 0h-6.252l-6.846 28.074h6.256l6.842-28.074zm8.423 0h-6.258l-6.843 28.074h6.256l6.845-28.074zm16.791 20.573h19.996a2.318 2.318 0 0 1 2.318 2.315v12.21a2.316 2.316 0 0 0 2.314 2.316h25.683a2.317 2.317 0 0 0 2.318-2.316 2.317 2.317 0 0 0-2.318-2.315h-21.052a2.317 2.317 0 0 1-2.315-2.316v-12.21a2.314 2.314 0 0 0-2.315-2.315H139.69a2.314 2.314 0 0 0-2.314 2.315v2.316h-.001zm-96.415-4.631H20.117a2.317 2.317 0 0 0 0 4.631H40.96m126.846 134.421H14.962a3.872 3.872 0 0 1-3.873-3.87v-73.397a3.872 3.872 0 0 1 3.873-3.87h152.844a3.87 3.87 0 0 1 3.869 3.87v73.397a3.872 3.872 0 0 1-3.869 3.87z"/><path fill="#FFF" d="M162.503 244.215H20.624a3 3 0 0 1-2.999-3v-17.943h147.877v17.943a3 3 0 0 1-2.999 3z"/></svg>