<svg xmlns="http://www.w3.org/2000/svg" width="23.944" height="38.924" viewBox="0 0 23.944 38.924"><path fill="#0770B8" d="M23.944 26.536c0-2.027-.512-4.081-1.329-6.163-1.229-3.125-3.144-6.321-5.097-9.605-1.952-3.285-3.94-6.659-5.319-10.122L11.941 0l-.264.645C9.763 5.339 6.856 9.78 4.418 14.057c-1.218 2.139-2.32 4.237-3.121 6.311C.498 22.441 0 24.494 0 26.536c0 .144.001.288.007.433.115 3.294 1.451 6.283 3.587 8.447a11.684 11.684 0 0 0 8.378 3.508c6.605 0 11.959-5.352 11.965-11.955.005-.145.007-.288.007-.433z"/></svg>