<?xml version="1.0" encoding="utf-8"?>
<!-- Generator: Adobe Illustrator 16.0.0, SVG Export Plug-In . SVG Version: 6.00 Build 0)  -->
<!DOCTYPE svg PUBLIC "-//W3C//DTD SVG 1.1//EN" "http://www.w3.org/Graphics/SVG/1.1/DTD/svg11.dtd">
<svg version="1.1" id="Layer_1" xmlns="http://www.w3.org/2000/svg" xmlns:xlink="http://www.w3.org/1999/xlink" x="0px" y="0px"
	 width="398.134px" height="426.154px" viewBox="-110.951 -50.708 398.134 426.154"
	 enable-background="new -110.951 -50.708 398.134 426.154" xml:space="preserve">
<g>
	<path fill="#0770B8" d="M74.905,322.706c-0.894,11.956-2.244,25.6-3.366,36.247c-0.558,5.323-1.068,9.896-1.428,13.138
		c-0.156,1.379-0.287,2.502-0.384,3.354H-4.04c1.625-5.028,5.292-16.414,9.034-28.409c2.511-8.043,5.042-16.354,7.022-23.208
		c0.989-3.427,1.833-6.487,2.473-8.978c0.316-1.248,0.58-2.353,0.785-3.295c0.204-0.948,0.348-1.721,0.421-2.376
		c0.238-2.106,0.379-3.991,0.379-5.739c0-1.876-0.163-3.604-0.546-5.25c-0.571-2.467-1.657-4.717-3.266-6.927
		c-1.616-2.208-3.732-4.414-6.48-6.985c-5.31-4.955-9.943-9.65-16.925-14.697c-6.975-5.053-16.247-10.424-30.855-16.882
		c-9.014-3.979-15.974-7.814-21.443-12.188c-5.469-4.377-9.483-9.277-12.711-15.61c-3.798-7.459-9.442-17.705-14.146-26.101
		c-1.17-2.087-2.282-4.063-3.292-5.85c2.046,1.759,3.87,3.416,5.168,4.687c1.497,1.457,4.726,4.478,8.333,7.621
		c1.801,1.573,3.695,3.177,5.512,4.628c1.818,1.452,3.554,2.755,5.075,3.743c0.616,0.402,1.501,1.064,2.55,1.91
		c1.839,1.478,4.193,3.509,6.763,5.783c3.859,3.416,8.217,7.375,12.183,10.896c1.984,1.757,3.87,3.401,5.558,4.816
		c1.686,1.418,3.142,2.633,4.374,3.463c6.571,4.429,8.562,4.994,11.52,6.219c0.659,0.274,1.19-0.588,0.652-1.057
		c-7.241-6.248-14.415-10.315-30.461-26.393c-2.146-2.146-4.41-3.896-6.267-5.455c-1.866-1.566-3.425-2.804-4.645-3.602
		c-1.34-0.866-2.999-2.107-4.752-3.51c-5.264-4.209-11.42-9.903-13.542-11.979c-2.028-1.984-5.104-4.715-8.396-7.409
		c-3.294-2.695-6.78-5.33-9.684-7.124c-0.957-0.589-1.525-1.19-1.864-1.751c-0.338-0.562-0.473-1.097-0.478-1.713
		c-0.005-0.889,0.345-1.975,1.051-3.079c0.699-1.1,1.734-2.186,2.921-3.072c1.235-0.926,2.474-1.699,4.057-2.271
		c1.584-0.568,3.536-0.947,6.211-0.947c3.903-0.007,9.324,0.821,17.039,3.047c9.381,2.701,17.194,8.608,23.279,14.115
		c3.044,2.749,5.648,5.39,7.847,7.478c1.101,1.043,2.1,1.958,3.037,2.688c0.469,0.373,0.923,0.696,1.389,0.973
		c0.464,0.281,0.938,0.518,1.475,0.673c0.957,0.282,2.291,0.905,3.79,1.711c2.26,1.199,4.916,2.778,7.747,4.087
		c2.834,1.302,5.859,2.364,9,2.389c2.338,0.011,7.513,0.224,14.049,0.996c6.539,0.773,14.457,2.111,22.33,4.362
		c7.693,2.195,15.232,6.469,21.375,10.81c3.081,2.166,5.806,4.345,8.045,6.277c2.233,1.926,3.974,3.612,5.052,4.763
		c2.197,2.335,5.041,5.851,7.682,9.873c2.643,4.014,5.08,8.545,6.513,12.859c1.277,3.829,1.625,7.399,1.879,10.425
		c0.131,1.513,0.229,2.891,0.438,4.152c0.107,0.631,0.24,1.237,0.438,1.824c0.205,0.589,0.474,1.164,0.89,1.699
		c0.201,0.258,0.634,1.032,1.062,2.279c0.659,1.873,1.38,4.812,1.978,8.973c0.6,4.158,1.082,9.548,1.291,16.354
		c0.024,0.702,0.035,1.471,0.035,2.305C75.902,307.502,75.508,314.738,74.905,322.706L74.905,322.706z"/>
	<path fill="#0770B8" d="M-106.763,146.788c-1.868-10.459-3.695-23.423-3.979-35.032c-0.131-5.357-0.209-9.36-0.209-12.461
		c0-3.667,0.112-6.06,0.358-7.926c0.25-1.871,0.622-3.252,1.223-5.067c0.159-0.473,0.391-0.858,0.69-1.195
		c0.449-0.502,1.074-0.911,1.801-1.188c0.727-0.276,1.545-0.413,2.28-0.408c0.743-0.005,1.398,0.144,1.722,0.304
		c0.757,0.357,2.807,1.436,4.883,3.457c2.082,2.037,4.191,4.978,5.217,9.196c1.832,7.542,2.904,14.608,2.898,19.757
		c0,1.098-0.047,2.11-0.141,3.014c-0.017,0.143-0.021,0.287-0.021,0.424c0.001,0.571,0.097,1.067,0.223,1.584
		c0.226,0.9,0.571,1.842,0.979,2.939c1.218,3.258,3.029,7.838,3.841,13.971c0.984,7.416,2.824,16.208,2.829,16.232l0.072,0.35
		l0.183,0.299c0.043,0.066,3.34,5.463,8.914,11.788c-0.313-0.098-0.613-0.203-0.931-0.295c-7.938-2.287-13.694-3.21-18.167-3.21
		c-3.058,0-5.527,0.441-7.596,1.186c-1.166,0.42-2.182,0.936-3.113,1.495C-103.473,163.191-105.131,155.94-106.763,146.788
		L-106.763,146.788z"/>
	<path fill="#0770B8" d="M-99.469,79.353c0.594-0.559,1.298-1.082,2.087-1.453c0.792-0.372,1.654-0.606,2.649-0.606
		c0.224,0,0.454,0.011,0.694,0.042c0.734,0.072,1.652,0.377,2.617,0.906c1.451,0.796,3,2.088,4.322,3.655
		c1.326,1.564,2.43,3.39,3.082,5.209c1.505,4.181,1.74,7.244,1.74,8.769c0,0.394-0.014,0.69-0.03,0.869
		c-0.007,0.09-0.013,0.156-0.017,0.19l-0.003,0.031l-0.122,0.798l0.472,0.667l0,0c0.028,0.04,1.046,1.497,2.259,3.805
		c1.211,2.302,2.615,5.46,3.431,8.838c0.28,1.157,0.52,2.803,0.697,4.564c0.268,2.655,0.408,5.601,0.481,7.875
		c0.037,1.14,0.058,2.106,0.068,2.791c0.005,0.343,0.008,0.61,0.01,0.792c0.004,0.187,0.004,0.283,0.004,0.283l0.001,0.701
		l0.435,0.552c0,0,0.03,0.038,0.093,0.114c0.456,0.582,2.549,3.264,4.638,6.168c1.042,1.453,2.09,2.96,2.922,4.268
		c0.415,0.653,0.775,1.26,1.052,1.77c0.277,0.504,0.465,0.93,0.53,1.135c0.645,1.921,1.751,4.104,3.03,6.271
		c1.281,2.156,2.731,4.262,4.079,5.912c0.542,0.659,1.212,1.64,1.888,2.736c1.021,1.657,2.072,3.589,2.911,5.238
		c0.419,0.828,0.782,1.591,1.064,2.204c0.279,0.612,0.481,1.104,0.537,1.278c0.144,0.415,0.311,0.664,0.478,0.906
		c0.316,0.444,0.671,0.822,1.104,1.261c0.749,0.757,1.722,1.63,2.847,2.646c1.68,1.524,3.69,3.342,5.657,5.347
		c1.967,2,3.881,4.178,5.357,6.375c1.117,1.663,1.678,2.502,1.954,2.922c0.048,0.07,0.074,0.112,0.107,0.161l0.204,0.728
		l0.996,0.353l0.024,0.007c0.31,0.114,3.294,1.2,6.949,2.976c3.651,1.765,7.977,4.254,10.891,6.993
		c1.634,1.528,3.163,3.06,4.431,4.36c-2.917-0.204-5.202-0.277-6.619-0.28c-1.457-0.007-3.077-0.359-4.76-0.96
		c-2.526-0.895-5.166-2.329-7.651-3.701c-1.245-0.687-2.453-1.356-3.614-1.946c-1.164-0.581-2.275-1.079-3.382-1.409
		c-0.072-0.019-0.268-0.097-0.53-0.26c-0.497-0.293-1.211-0.845-2.054-1.59c-1.479-1.303-3.348-3.175-5.544-5.298
		c-5.002-4.814-11.711-10.982-20.172-15.292c-0.364-0.544-1.608-2.321-4.752-5.887c-2.67-3.036-4.805-5.857-6.266-7.917
		c-0.729-1.026-1.294-1.859-1.668-2.436c-0.162-0.252-0.285-0.438-0.376-0.583c-0.003-0.012-0.003-0.017-0.005-0.029
		c-0.359-1.757-1.868-9.259-2.699-15.549c-0.669-5.064-1.981-9.17-3.101-12.268c-0.558-1.546-1.069-2.843-1.417-3.845
		c-0.175-0.498-0.469-0.925-0.55-1.248c-0.083-0.323-0.264-0.547-0.264-0.599v0.337h0.184c0.11-1.799,0.233-2.39,0.233-3.603
		c-0.003-5.69-1.101-13.04-2.978-20.806c-1.227-5.066-3.805-8.751-6.318-11.199c-2.094-2.036-4.108-3.278-5.334-3.918
		C-100.216,80.12-99.868,79.718-99.469,79.353L-99.469,79.353z"/>
	<path fill="#0770B8" d="M100.333,302.467c0-0.833,0.013-1.602,0.031-2.304c0.215-6.806,0.697-12.195,1.297-16.354
		c0.592-4.159,1.314-7.1,1.973-8.972c0.433-1.247,0.864-2.021,1.07-2.28c0.407-0.535,0.678-1.11,0.882-1.699
		c0.195-0.586,0.334-1.192,0.438-1.823c0.209-1.262,0.312-2.641,0.439-4.152c0.251-3.027,0.596-6.595,1.877-10.425
		c1.435-4.314,3.87-8.846,6.51-12.86c2.644-4.022,5.488-7.539,7.685-9.872c1.078-1.151,2.824-2.838,5.057-4.763
		c2.234-1.934,4.963-4.113,8.037-6.278c6.146-4.34,13.689-8.614,21.379-10.81c7.871-2.25,15.792-3.59,22.327-4.361
		c6.538-0.774,11.718-0.985,14.051-0.997c3.145-0.024,6.169-1.087,9.003-2.388c2.831-1.308,5.483-2.888,7.748-4.088
		c1.493-0.804,2.831-1.428,3.784-1.711c0.54-0.154,1.014-0.39,1.477-0.673c0.465-0.276,0.92-0.6,1.39-0.972
		c0.939-0.731,1.936-1.646,3.034-2.688c2.197-2.089,4.807-4.73,7.851-7.479c6.083-5.509,13.895-11.413,23.278-14.114
		c7.713-2.227,13.138-3.056,17.039-3.049c2.671,0,4.628,0.379,6.212,0.949c1.58,0.57,2.821,1.343,4.056,2.27
		c1.185,0.887,2.222,1.974,2.925,3.072c0.702,1.104,1.056,2.189,1.048,3.079c-0.004,0.616-0.144,1.15-0.479,1.714
		c-0.338,0.558-0.905,1.16-1.862,1.749c-2.904,1.794-6.389,4.428-9.686,7.124c-3.293,2.694-6.367,5.425-8.396,7.411
		c-2.124,2.075-8.274,7.771-13.544,11.978c-1.753,1.404-3.41,2.646-4.753,3.511c-1.219,0.796-2.773,2.034-4.638,3.601
		c-1.861,1.56-4.128,3.306-6.273,5.455c-16.047,16.078-23.217,20.146-30.464,26.394c-0.539,0.467-0.005,1.332,0.656,1.056
		c2.96-1.223,4.951-1.79,11.522-6.218c1.229-0.83,2.688-2.046,4.375-3.463c1.681-1.417,3.569-3.061,5.553-4.817
		c3.966-3.518,8.329-7.479,12.189-10.895c2.566-2.274,4.921-4.308,6.756-5.783c1.05-0.847,1.939-1.509,2.552-1.909
		c1.522-0.99,3.259-2.294,5.076-3.745c1.813-1.452,3.708-3.054,5.51-4.626c3.604-3.144,6.843-6.163,8.335-7.622
		c1.297-1.272,3.128-2.929,5.167-4.688c-1.007,1.788-2.118,3.763-3.295,5.852c-4.7,8.396-10.343,18.64-14.146,26.1
		c-3.228,6.331-7.242,11.234-12.712,15.609c-5.467,4.375-12.427,8.209-21.44,12.189c-14.607,6.458-23.879,11.828-30.858,16.881
		c-6.974,5.047-11.613,9.742-16.919,14.697c-2.753,2.568-4.873,4.778-6.479,6.986c-1.615,2.209-2.7,4.46-3.272,6.926
		c-0.381,1.646-0.545,3.374-0.545,5.252c0,1.748,0.136,3.631,0.38,5.737c0.072,0.655,0.214,1.429,0.418,2.378
		c0.204,0.94,0.477,2.045,0.793,3.294c0.64,2.489,1.485,5.551,2.473,8.978c1.974,6.853,4.512,15.165,7.023,23.209
		c3.737,11.995,7.403,23.38,9.03,28.407h-73.771c-0.096-0.853-0.222-1.973-0.378-3.354c-0.365-3.241-0.869-7.814-1.434-13.137
		c-1.123-10.647-2.467-24.292-3.366-36.248C100.729,314.738,100.333,307.502,100.333,302.467L100.333,302.467z"/>
	<path fill="#0770B8" d="M279.034,164.373c-0.932-0.558-1.951-1.074-3.113-1.496c-2.065-0.74-4.538-1.186-7.595-1.186
		c-4.476,0-10.226,0.926-18.17,3.214c-0.312,0.088-0.619,0.197-0.925,0.292c5.568-6.326,8.869-11.722,8.911-11.786l0.179-0.302
		l0.08-0.347c0-0.024,1.84-8.815,2.824-16.234c0.812-6.127,2.623-10.712,3.842-13.971c0.409-1.097,0.756-2.041,0.977-2.94
		c0.128-0.516,0.226-1.013,0.229-1.584c0-0.139-0.004-0.283-0.025-0.427c-0.094-0.9-0.145-1.908-0.145-3.007
		c-0.005-5.154,1.072-12.219,2.899-19.762c1.026-4.219,3.14-7.161,5.222-9.195c2.077-2.023,4.124-3.103,4.878-3.458
		c0.325-0.163,0.98-0.313,1.724-0.307c0.736-0.005,1.556,0.133,2.28,0.409c0.732,0.277,1.355,0.686,1.799,1.189
		c0.302,0.339,0.536,0.719,0.693,1.2c0.605,1.806,0.971,3.186,1.223,5.059c0.246,1.866,0.361,4.261,0.361,7.928
		c0,3.101-0.081,7.104-0.211,12.464c-0.283,11.607-2.112,24.569-3.979,35.029C281.364,154.308,279.701,161.556,279.034,164.373
		L279.034,164.373z"/>
	<path fill="#0770B8" d="M276.731,78.812c-1.226,0.636-3.239,1.855-5.336,3.888c-2.512,2.445-5.089,6.063-6.316,11.132
		c-1.877,7.768-2.976,14.859-2.98,20.548c0,1.214,0.12,2.62,0.234,3.219h-0.539v0.431c0,0.053,0.177,0.276,0.098,0.602
		c-0.08,0.323-0.165,0.749-0.337,1.246c-0.349,1.002-0.787,2.298-1.345,3.846c-1.115,3.098-2.396,7.202-3.061,12.269
		c-0.835,6.288-2.323,13.796-2.682,15.546c0,0.016,0.005,0.02,0.005,0.031c-0.09,0.144-0.209,0.33-0.373,0.582
		c-0.379,0.577-0.936,1.41-1.669,2.437c-1.458,2.058-3.596,4.879-6.265,7.915c-3.142,3.565-4.389,5.343-4.753,5.889
		c-8.463,4.314-15.173,10.479-20.171,15.297c-2.193,2.124-4.066,3.992-5.544,5.294c-0.841,0.744-1.559,1.297-2.057,1.591
		c-0.259,0.16-0.455,0.237-0.528,0.256c-1.105,0.331-2.216,0.828-3.379,1.412c-1.164,0.587-2.371,1.26-3.613,1.943
		c-2.483,1.376-5.126,2.809-7.652,3.702c-1.686,0.601-3.298,0.954-4.758,0.961c-1.42,0.014-3.701,0.085-6.618,0.28
		c1.265-1.3,2.797-2.824,4.428-4.355c2.918-2.74,7.246-5.226,10.894-6.997c3.656-1.774,6.637-2.863,6.944-2.976l0.03-0.007
		l0.997-0.354l0.203-0.726c0.032-0.049,0.061-0.091,0.104-0.163c0.282-0.42,0.841-1.26,1.957-2.922
		c1.479-2.192,3.39-4.376,5.362-6.373c1.962-2.004,3.972-3.823,5.651-5.348c1.13-1.013,2.101-1.892,2.85-2.646
		c0.434-0.438,0.786-0.816,1.106-1.262c0.162-0.238,0.327-0.491,0.472-0.904c0.055-0.174,0.259-0.666,0.535-1.278
		c0.281-0.61,0.648-1.374,1.069-2.203c0.835-1.65,1.892-3.583,2.909-5.233c0.672-1.104,1.346-2.084,1.885-2.743
		c1.352-1.649,2.804-3.757,4.083-5.909c1.278-2.167,2.389-4.352,3.03-6.273c0.065-0.202,0.249-0.629,0.526-1.134
		c0.276-0.509,0.637-1.115,1.058-1.77c0.827-1.309,1.872-2.814,2.916-4.266c2.095-2.906,4.188-5.588,4.644-6.17
		c0.062-0.071,0.091-0.113,0.091-0.113l0.435-0.553l0.006-0.702c0,0,0-0.098,0-0.283c0-0.18,0.008-0.45,0.012-0.792
		c0.013-0.686,0.03-1.652,0.067-2.79c0.072-2.27,0.215-5.223,0.479-7.875c0.18-1.765,0.417-3.407,0.697-4.567
		c0.821-3.381,2.219-6.529,3.431-8.839c1.213-2.305,2.235-3.763,2.255-3.805l0,0l0.477-0.665l-0.12-0.799l-0.007-0.029
		c-0.006-0.036-0.012-0.098-0.018-0.192c-0.012-0.181-0.032-0.475-0.032-0.871c0-1.523,0.237-4.585,1.741-8.77
		c0.653-1.811,1.76-3.642,3.084-5.208c1.32-1.56,2.87-2.856,4.322-3.648c0.965-0.533,1.877-0.835,2.615-0.913
		c0.243-0.029,0.468-0.042,0.697-0.042c0.99,0.007,1.853,0.233,2.646,0.604c0.788,0.375,1.493,0.897,2.089,1.453
		C276.098,78.087,276.448,78.456,276.731,78.812L276.731,78.812z"/>
	<polygon fill="#0770B8" points="123.907,66.76 123.983,66.738 122.414,67.176 123.907,66.76 	"/>
	<path fill="#0770B8" d="M138.163,108.603v0.006c-0.598,10.208-2.965,21.033-9.846,30.858c-1.204,1.729-2.436,2.987-3.857,3.823
		c-1.417,0.828-2.906,1.224-4.315,1.224c-2.03,0-3.874-0.799-5.203-2.07c-1.342-1.272-2.187-3.054-2.187-5.005
		c-0.005-1.164,0.308-2.372,0.957-3.505c2.814-4.945,4.808-8.204,6.45-11.668c1.644-3.467,2.985-7.19,4.491-13.195
		c0.498-1.986,1.746-3.542,3.228-4.575c1.482-1.031,3.211-1.596,4.908-1.602c1.04,0,2.077,0.214,3.01,0.739
		c0.93,0.51,1.664,1.362,2.105,2.442c0.302,0.722,0.384,1.531,0.384,2.396L138.163,108.603L138.163,108.603z M121.205,65.068
		c0.288-0.485,0.668-0.876,1.093-1.188c0.853-0.625,1.896-0.978,3.023-0.978c0.765-0.007,1.564,0.168,2.312,0.583
		c0.745,0.405,1.419,1.055,1.899,1.884c3.983,6.853,7.279,14.558,7.759,24.88c0.005,0.146,0.012,0.282,0.012,0.427
		c0,1.122-0.222,2.161-0.618,3.074c-0.397,0.905-0.966,1.68-1.631,2.297c-1.346,1.23-3.043,1.849-4.713,1.854
		c-0.966,0-1.938-0.215-2.807-0.69c-0.868-0.481-1.633-1.244-2.088-2.226c-0.313-0.657-0.485-1.399-0.522-2.185
		c-0.342-7.518-1.338-15.333-4.082-25.187c-0.076-0.277-0.112-0.569-0.112-0.853C120.726,66.132,120.918,65.543,121.205,65.068
		L121.205,65.068z M149.496,67.668c-7.13-18.147-18.262-36.723-29.605-55.811C108.549-7.23,96.995-26.833,88.986-46.948l-1.501-3.76
		l-1.532,3.747C74.829-19.681,57.938,6.124,43.771,30.97c-7.083,12.428-13.486,24.617-18.136,36.669
		c-4.647,12.05-7.538,23.974-7.538,35.845c0,0.833,0.012,1.675,0.041,2.507c0.673,19.146,8.437,36.513,20.843,49.093
		c12.404,12.579,29.483,20.378,48.676,20.373c38.377,0,69.489-31.091,69.523-69.458l0,0c0.032-0.84,0.042-1.675,0.042-2.515
		C157.225,91.701,154.251,79.772,149.496,67.668L149.496,67.668z"/>
</g>
</svg>
