<?xml version="1.0" encoding="utf-8"?>
<!-- Generator: Adobe Illustrator 16.0.0, SVG Export Plug-In . SVG Version: 6.00 Build 0)  -->
<!DOCTYPE svg PUBLIC "-//W3C//DTD SVG 1.1//EN" "http://www.w3.org/Graphics/SVG/1.1/DTD/svg11.dtd">
<svg version="1.1" id="Layer_1" xmlns="http://www.w3.org/2000/svg" xmlns:xlink="http://www.w3.org/1999/xlink" x="0px" y="0px"
	 width="239.81px" height="256.686px" viewBox="0 0 239.81 256.686" enable-background="new 0 0 239.81 256.686"
	 xml:space="preserve">
<g>
	<path fill="#0275BC" d="M111.947,224.919c-0.538,7.201-1.352,15.42-2.027,21.833c-0.336,3.206-0.644,5.961-0.861,7.913
		c-0.093,0.831-0.173,1.507-0.231,2.021H64.396c0.979-3.029,3.188-9.887,5.442-17.112c1.512-4.844,3.037-9.851,4.229-13.979
		c0.596-2.064,1.105-3.907,1.489-5.407c0.191-0.752,0.35-1.417,0.473-1.985c0.123-0.571,0.21-1.037,0.254-1.431
		c0.144-1.269,0.228-2.404,0.228-3.456c0-1.131-0.097-2.172-0.329-3.163c-0.343-1.486-0.998-2.841-1.966-4.172
		c-0.974-1.33-2.248-2.66-3.904-4.208c-3.198-2.985-5.989-5.813-10.194-8.853c-4.201-3.043-9.786-6.278-18.585-10.168
		c-5.43-2.397-9.622-4.707-12.916-7.342c-3.294-2.635-5.712-5.588-7.656-9.402c-2.288-4.493-5.688-10.664-8.521-15.721
		c-0.705-1.258-1.375-2.447-1.983-3.524c1.232,1.059,2.331,2.057,3.113,2.823c0.901,0.878,2.847,2.697,5.02,4.591
		c1.085,0.947,2.225,1.913,3.32,2.787c1.095,0.875,2.141,1.659,3.057,2.255c0.371,0.242,0.904,0.641,1.536,1.15
		c1.107,0.89,2.525,2.114,4.073,3.484c2.324,2.057,4.949,4.442,7.338,6.562c1.195,1.059,2.331,2.049,3.347,2.902
		c1.016,0.853,1.893,1.586,2.635,2.086c3.958,2.667,5.157,3.007,6.939,3.745c0.397,0.166,0.717-0.354,0.392-0.636
		c-4.361-3.764-8.682-6.214-18.347-15.898c-1.292-1.293-2.657-2.346-3.775-3.286c-1.124-0.943-2.063-1.688-2.798-2.169
		c-0.807-0.521-1.806-1.269-2.862-2.114c-3.171-2.535-6.879-5.965-8.157-7.215c-1.222-1.196-3.074-2.841-5.057-4.464
		c-1.984-1.623-4.084-3.21-5.833-4.291c-0.576-0.354-0.919-0.716-1.123-1.053c-0.204-0.339-0.285-0.661-0.288-1.033
		c-0.003-0.535,0.208-1.189,0.633-1.854c0.421-0.662,1.045-1.316,1.76-1.851c0.744-0.557,1.49-1.023,2.443-1.367
		c0.954-0.343,2.13-0.571,3.741-0.571c2.351-0.004,5.616,0.495,10.263,1.836c5.65,1.627,10.356,5.184,14.021,8.502
		c1.834,1.655,3.403,3.246,4.727,4.504c0.663,0.628,1.265,1.178,1.829,1.619c0.282,0.224,0.556,0.419,0.837,0.586
		c0.279,0.169,0.564,0.311,0.888,0.405c0.576,0.17,1.38,0.545,2.283,1.03c1.361,0.723,2.961,1.674,4.666,2.462
		c1.707,0.784,3.529,1.424,5.421,1.439c1.408,0.007,4.525,0.134,8.462,0.6c3.938,0.466,8.708,1.272,13.45,2.627
		c4.634,1.323,9.175,3.897,12.875,6.511c1.855,1.305,3.497,2.617,4.846,3.781c1.344,1.16,2.393,2.176,3.043,2.869
		c1.323,1.407,3.036,3.524,4.627,5.947c1.591,2.418,3.059,5.147,3.922,7.746c0.77,2.306,0.979,4.457,1.132,6.279
		c0.079,0.911,0.138,1.741,0.264,2.501c0.064,0.38,0.144,0.745,0.264,1.099c0.123,0.354,0.285,0.701,0.536,1.023
		c0.121,0.155,0.382,0.622,0.639,1.373c0.397,1.128,0.831,2.899,1.192,5.404c0.361,2.505,0.651,5.751,0.777,9.851
		c0.015,0.423,0.022,0.886,0.022,1.388C112.548,215.762,112.31,220.119,111.947,224.919L111.947,224.919z"/>
	<path fill="#0275BC" d="M2.522,118.958c-1.125-6.3-2.225-14.108-2.396-21.1C0.047,94.631,0,92.22,0,90.352
		c0-2.209,0.067-3.651,0.216-4.775c0.15-1.127,0.374-1.959,0.736-3.051c0.096-0.286,0.235-0.517,0.416-0.72
		c0.27-0.303,0.646-0.549,1.085-0.716c0.437-0.166,0.931-0.249,1.373-0.246c0.447-0.003,0.842,0.087,1.037,0.184
		c0.456,0.214,1.69,0.864,2.941,2.082c1.254,1.226,2.525,2.998,3.143,5.539c1.104,4.543,1.749,8.798,1.746,11.9
		c0,0.661-0.028,1.272-0.085,1.815c-0.01,0.086-0.013,0.173-0.013,0.256c0.001,0.344,0.059,0.643,0.135,0.954
		c0.136,0.542,0.344,1.11,0.59,1.771c0.733,1.962,1.824,4.721,2.314,8.415c0.592,4.467,1.701,9.763,1.704,9.777l0.043,0.21
		l0.11,0.181c0.026,0.04,2.012,3.29,5.369,7.1c-0.188-0.059-0.369-0.123-0.56-0.178c-4.782-1.377-8.248-1.934-10.943-1.934
		c-1.842,0-3.329,0.267-4.575,0.715c-0.702,0.253-1.314,0.564-1.875,0.9C4.505,128.838,3.506,124.471,2.522,118.958L2.522,118.958z"
		/>
	<path fill="#0275BC" d="M6.916,78.34c0.357-0.337,0.782-0.651,1.257-0.875c0.477-0.224,0.996-0.365,1.595-0.365
		c0.135,0,0.274,0.007,0.418,0.025c0.443,0.043,0.995,0.228,1.576,0.546c0.874,0.48,1.807,1.258,2.604,2.201
		c0.799,0.943,1.464,2.042,1.856,3.138c0.907,2.519,1.048,4.363,1.048,5.281c0,0.238-0.009,0.416-0.018,0.524
		c-0.004,0.054-0.008,0.094-0.01,0.115l-0.002,0.018l-0.073,0.481l0.284,0.401l0,0c0.017,0.025,0.63,0.903,1.36,2.292
		c0.73,1.387,1.575,3.289,2.067,5.324c0.169,0.697,0.313,1.688,0.42,2.75c0.161,1.598,0.246,3.373,0.29,4.743
		c0.022,0.686,0.035,1.268,0.041,1.681c0.003,0.206,0.005,0.368,0.006,0.477c0.002,0.112,0.002,0.17,0.002,0.17l0.001,0.422
		l0.262,0.333c0,0,0.018,0.022,0.056,0.068c0.274,0.351,1.535,1.967,2.794,3.716c0.628,0.875,1.259,1.782,1.76,2.57
		c0.25,0.394,0.466,0.759,0.633,1.066c0.167,0.303,0.281,0.56,0.32,0.683c0.388,1.157,1.054,2.473,1.825,3.778
		c0.771,1.298,1.644,2.567,2.457,3.561c0.326,0.397,0.729,0.987,1.137,1.648c0.615,0.998,1.248,2.162,1.753,3.155
		c0.252,0.499,0.471,0.958,0.641,1.327c0.168,0.369,0.29,0.665,0.323,0.77c0.087,0.25,0.188,0.401,0.288,0.546
		c0.191,0.268,0.405,0.495,0.665,0.76c0.452,0.455,1.038,0.982,1.715,1.594c1.012,0.918,2.223,2.013,3.408,3.221
		c1.184,1.204,2.337,2.516,3.226,3.839c0.673,1.001,1.011,1.507,1.177,1.76c0.029,0.042,0.045,0.068,0.064,0.097l0.123,0.438
		l0.6,0.213l0.015,0.004c0.186,0.069,1.984,0.723,4.185,1.792c2.199,1.063,4.805,2.563,6.56,4.212
		c0.984,0.921,1.905,1.843,2.669,2.627c-1.757-0.123-3.133-0.167-3.987-0.169c-0.878-0.004-1.853-0.217-2.867-0.578
		c-1.521-0.539-3.111-1.403-4.608-2.23c-0.75-0.413-1.478-0.817-2.177-1.172c-0.701-0.35-1.37-0.65-2.037-0.849
		c-0.043-0.011-0.161-0.058-0.319-0.156c-0.299-0.177-0.73-0.509-1.238-0.958c-0.89-0.784-2.016-1.912-3.34-3.191
		c-3.012-2.9-7.053-6.615-12.15-9.211c-0.219-0.328-0.969-1.398-2.862-3.546c-1.609-1.829-2.895-3.528-3.775-4.768
		c-0.439-0.618-0.779-1.12-1.005-1.467c-0.097-0.152-0.171-0.264-0.226-0.351c-0.002-0.007-0.002-0.01-0.003-0.018
		c-0.217-1.059-1.125-5.577-1.626-9.365c-0.403-3.051-1.193-5.524-1.868-7.39c-0.336-0.932-0.644-1.713-0.854-2.316
		c-0.105-0.3-0.282-0.557-0.331-0.752c-0.05-0.195-0.159-0.329-0.159-0.361v0.203h0.11c0.067-1.084,0.141-1.439,0.141-2.169
		c-0.002-3.427-0.663-7.855-1.794-12.533c-0.739-3.05-2.292-5.27-3.806-6.745c-1.261-1.226-2.474-1.974-3.212-2.36
		C6.467,78.802,6.676,78.56,6.916,78.34L6.916,78.34z"/>
	<path fill="#0275BC" d="M127.263,212.729c0-0.502,0.008-0.965,0.019-1.388c0.13-4.1,0.42-7.346,0.781-9.851
		c0.357-2.505,0.792-4.276,1.189-5.404c0.26-0.751,0.52-1.218,0.644-1.373c0.245-0.322,0.408-0.669,0.531-1.023
		c0.118-0.354,0.202-0.719,0.264-1.099c0.126-0.76,0.188-1.59,0.265-2.501c0.151-1.823,0.359-3.973,1.131-6.279
		c0.864-2.599,2.331-5.328,3.921-7.746c1.592-2.423,3.305-4.541,4.628-5.947c0.65-0.693,1.702-1.709,3.046-2.869
		c1.346-1.164,2.99-2.477,4.841-3.781c3.702-2.614,8.246-5.188,12.877-6.511c4.741-1.355,9.513-2.162,13.449-2.627
		c3.938-0.466,7.058-0.593,8.463-0.6c1.895-0.015,3.716-0.655,5.423-1.439c1.705-0.788,3.303-1.739,4.667-2.462
		c0.899-0.484,1.705-0.86,2.279-1.03c0.326-0.094,0.611-0.235,0.89-0.405c0.279-0.167,0.554-0.362,0.836-0.586
		c0.566-0.441,1.167-0.991,1.828-1.619c1.323-1.258,2.896-2.849,4.729-4.504c3.664-3.319,8.369-6.875,14.021-8.502
		c4.646-1.341,7.913-1.84,10.264-1.836c1.608,0,2.787,0.228,3.741,0.571c0.951,0.344,1.699,0.81,2.443,1.367
		c0.713,0.535,1.338,1.189,1.761,1.851c0.424,0.665,0.637,1.319,0.632,1.854c-0.003,0.372-0.087,0.694-0.288,1.033
		c-0.204,0.336-0.546,0.699-1.122,1.053c-1.749,1.081-3.849,2.667-5.834,4.291c-1.984,1.623-3.835,3.268-5.057,4.464
		c-1.279,1.25-4.984,4.681-8.158,7.215c-1.056,0.846-2.054,1.594-2.863,2.114c-0.734,0.48-1.67,1.226-2.793,2.169
		c-1.121,0.94-2.487,1.992-3.779,3.286c-9.666,9.685-13.984,12.135-18.349,15.898c-0.325,0.281-0.003,0.802,0.395,0.636
		c1.782-0.737,2.982-1.078,6.941-3.745c0.74-0.5,1.618-1.233,2.634-2.086c1.013-0.854,2.151-1.843,3.345-2.902
		c2.389-2.119,5.017-4.505,7.342-6.562c1.546-1.37,2.964-2.595,4.069-3.484c0.633-0.509,1.168-0.908,1.537-1.15
		c0.917-0.596,1.963-1.381,3.058-2.255c1.092-0.875,2.233-1.84,3.318-2.787c2.172-1.894,4.122-3.712,5.021-4.591
		c0.781-0.766,1.884-1.764,3.112-2.823c-0.606,1.077-1.275,2.266-1.984,3.524c-2.831,5.058-6.231,11.228-8.521,15.721
		c-1.944,3.813-4.362,6.767-7.656,9.402c-3.293,2.635-7.485,4.945-12.915,7.342c-8.798,3.89-14.383,7.125-18.587,10.168
		c-4.2,3.04-6.995,5.868-10.19,8.853c-1.659,1.547-2.936,2.878-3.904,4.208c-0.972,1.331-1.626,2.686-1.97,4.172
		c-0.23,0.991-0.328,2.032-0.328,3.163c0,1.052,0.082,2.187,0.228,3.456c0.044,0.394,0.129,0.86,0.252,1.431
		c0.123,0.568,0.287,1.233,0.478,1.985c0.384,1.5,0.894,3.343,1.489,5.407c1.189,4.128,2.718,9.135,4.23,13.979
		c2.251,7.226,4.459,14.083,5.44,17.112h-44.435c-0.057-0.514-0.134-1.189-0.227-2.021c-0.22-1.952-0.524-4.707-0.864-7.913
		c-0.676-6.413-1.486-14.632-2.027-21.833C127.502,220.119,127.263,215.762,127.263,212.729L127.263,212.729z"/>
	<path fill="#0275BC" d="M234.9,129.55c-0.56-0.336-1.175-0.646-1.875-0.9c-1.244-0.447-2.733-0.715-4.574-0.715
		c-2.696,0-6.159,0.557-10.944,1.935c-0.188,0.054-0.373,0.119-0.558,0.177c3.354-3.81,5.343-7.06,5.368-7.1l0.108-0.181
		l0.047-0.209c0-0.015,1.109-5.31,1.702-9.778c0.489-3.691,1.58-6.453,2.314-8.416c0.246-0.661,0.455-1.229,0.588-1.771
		c0.077-0.311,0.136-0.61,0.139-0.954c0-0.083-0.003-0.17-0.016-0.257c-0.057-0.542-0.087-1.149-0.087-1.811
		c-0.003-3.105,0.646-7.36,1.746-11.904c0.618-2.541,1.892-4.313,3.146-5.538c1.251-1.219,2.484-1.869,2.938-2.083
		c0.195-0.098,0.59-0.188,1.038-0.184c0.444-0.003,0.937,0.08,1.373,0.246c0.442,0.167,0.817,0.413,1.084,0.716
		c0.182,0.205,0.323,0.433,0.417,0.723c0.365,1.088,0.585,1.919,0.737,3.047c0.148,1.124,0.217,2.566,0.217,4.775
		c0,1.869-0.048,4.28-0.127,7.508c-0.17,6.991-1.272,14.799-2.396,21.1C236.303,123.488,235.302,127.854,234.9,129.55L234.9,129.55z
		"/>
	<path fill="#0275BC" d="M233.513,78.014c-0.738,0.383-1.951,1.117-3.213,2.342c-1.513,1.472-3.066,3.651-3.805,6.705
		c-1.131,4.678-1.792,8.95-1.795,12.377c0,0.73,0.072,1.577,0.141,1.938h-0.325v0.26c0,0.032,0.107,0.166,0.059,0.362
		c-0.048,0.195-0.1,0.451-0.203,0.751c-0.21,0.604-0.474,1.384-0.81,2.317c-0.672,1.866-1.443,4.338-1.844,7.389
		c-0.502,3.788-1.399,8.31-1.615,9.365c0,0.008,0.003,0.011,0.003,0.018c-0.054,0.087-0.126,0.199-0.224,0.351
		c-0.229,0.347-0.564,0.849-1.005,1.467c-0.879,1.24-2.166,2.939-3.774,4.768c-1.892,2.147-2.643,3.218-2.863,3.547
		c-5.098,2.599-9.139,6.312-12.149,9.214c-1.322,1.279-2.45,2.404-3.34,3.188c-0.506,0.448-0.939,0.781-1.239,0.958
		c-0.156,0.097-0.274,0.144-0.318,0.155c-0.666,0.199-1.335,0.499-2.035,0.85c-0.701,0.354-1.428,0.759-2.177,1.171
		c-1.495,0.828-3.087,1.691-4.608,2.23c-1.016,0.362-1.988,0.575-2.866,0.579c-0.856,0.007-2.23,0.05-3.987,0.169
		c0.762-0.784,1.685-1.702,2.667-2.624c1.758-1.651,4.364-3.148,6.562-4.214c2.202-1.07,3.997-1.725,4.182-1.793l0.019-0.004
		l0.6-0.213l0.123-0.437c0.019-0.029,0.036-0.054,0.062-0.098c0.17-0.253,0.507-0.759,1.179-1.76c0.89-1.32,2.042-2.636,3.229-3.839
		c1.182-1.207,2.393-2.303,3.405-3.221c0.68-0.61,1.265-1.139,1.716-1.594c0.261-0.264,0.474-0.492,0.666-0.76
		c0.098-0.144,0.198-0.296,0.285-0.545c0.033-0.105,0.156-0.401,0.322-0.77c0.17-0.368,0.39-0.828,0.644-1.327
		c0.503-0.994,1.139-2.158,1.752-3.152c0.405-0.665,0.811-1.255,1.136-1.652c0.813-0.994,1.688-2.263,2.459-3.56
		c0.77-1.305,1.438-2.621,1.825-3.778c0.039-0.122,0.151-0.379,0.318-0.683c0.166-0.307,0.382-0.672,0.636-1.066
		c0.498-0.788,1.128-1.696,1.757-2.57c1.261-1.75,2.522-3.365,2.797-3.715c0.036-0.043,0.055-0.069,0.055-0.069l0.261-0.333
		l0.003-0.423c0,0,0-0.058,0-0.17c0-0.108,0.005-0.271,0.008-0.477c0.007-0.413,0.018-0.995,0.04-1.681
		c0.044-1.367,0.129-3.145,0.288-4.743c0.109-1.063,0.251-2.053,0.42-2.751c0.495-2.036,1.337-3.933,2.067-5.324
		c0.73-1.388,1.346-2.267,1.358-2.292l0,0l0.287-0.401l-0.072-0.481l-0.004-0.018c-0.004-0.021-0.008-0.058-0.011-0.115
		c-0.008-0.109-0.019-0.286-0.019-0.524c0-0.918,0.142-2.762,1.049-5.282c0.393-1.091,1.059-2.194,1.857-3.137
		c0.795-0.94,1.728-1.721,2.603-2.197c0.582-0.322,1.131-0.503,1.576-0.55c0.146-0.018,0.282-0.026,0.42-0.026
		c0.596,0.004,1.116,0.141,1.593,0.365c0.475,0.225,0.9,0.54,1.259,0.875C233.133,77.577,233.343,77.8,233.513,78.014
		L233.513,78.014z"/>
	<polygon fill="#0275BC" points="141.463,70.755 141.509,70.741 140.563,71.005 141.463,70.755 141.463,70.755 	"/>
	<path fill="#0275BC" d="M150.05,95.958v0.004c-0.361,6.149-1.787,12.669-5.931,18.587c-0.726,1.041-1.467,1.8-2.323,2.303
		c-0.854,0.499-1.751,0.737-2.6,0.737c-1.223,0-2.333-0.481-3.134-1.247c-0.808-0.767-1.317-1.84-1.317-3.015
		c-0.003-0.701,0.185-1.428,0.576-2.111c1.695-2.978,2.896-4.941,3.885-7.027c0.99-2.089,1.798-4.331,2.705-7.949
		c0.3-1.196,1.052-2.133,1.944-2.754c0.893-0.622,1.934-0.962,2.956-0.965c0.626,0,1.251,0.129,1.813,0.445
		c0.56,0.307,1.003,0.82,1.268,1.471c0.182,0.434,0.232,0.922,0.232,1.442L150.05,95.958L150.05,95.958z M139.835,69.736
		c0.174-0.292,0.402-0.528,0.658-0.716c0.514-0.376,1.142-0.589,1.821-0.589c0.461-0.004,0.943,0.101,1.393,0.351
		c0.448,0.245,0.854,0.636,1.143,1.135c2.4,4.128,4.385,8.769,4.674,14.987c0.003,0.087,0.007,0.169,0.007,0.256
		c0,0.676-0.134,1.302-0.372,1.852c-0.239,0.545-0.582,1.012-0.983,1.384c-0.81,0.741-1.833,1.113-2.838,1.117
		c-0.582,0-1.167-0.13-1.691-0.416c-0.523-0.29-0.983-0.749-1.258-1.341c-0.188-0.395-0.292-0.843-0.314-1.316
		c-0.206-4.529-0.806-9.236-2.459-15.171c-0.046-0.167-0.067-0.343-0.067-0.514C139.547,70.376,139.662,70.022,139.835,69.736
		L139.835,69.736z M156.876,71.302c-4.295-10.931-11-22.119-17.832-33.617c-6.832-11.496-13.791-23.304-18.616-35.42L119.524,0
		l-0.923,2.257c-6.7,16.432-16.874,31.975-25.407,46.94c-4.267,7.486-8.123,14.828-10.924,22.087
		c-2.799,7.258-4.54,14.441-4.54,21.591c0,0.502,0.007,1.009,0.025,1.51c0.405,11.532,5.082,21.993,12.554,29.57
		c7.472,7.576,17.759,12.275,29.32,12.272c23.115,0,41.855-18.728,41.876-41.837l0,0c0.019-0.506,0.025-1.009,0.025-1.515
		C161.531,85.778,159.739,78.592,156.876,71.302L156.876,71.302z"/>
</g>
</svg>
