<?xml version="1.0" encoding="utf-8"?>
<!-- Generator: Adobe Illustrator 16.0.0, SVG Export Plug-In . SVG Version: 6.00 Build 0)  -->
<!DOCTYPE svg PUBLIC "-//W3C//DTD SVG 1.1//EN" "http://www.w3.org/Graphics/SVG/1.1/DTD/svg11.dtd">
<svg version="1.1" id="Layer_1" xmlns="http://www.w3.org/2000/svg" xmlns:xlink="http://www.w3.org/1999/xlink" x="0px" y="0px"
	 width="109.211px" height="38.361px" viewBox="0 0 109.211 38.361" enable-background="new 0 0 109.211 38.361"
	 xml:space="preserve">
<g>
	<path fill="#FFFFFF" d="M63.746,12.446c-1.844-1.727-4.238-2.603-7.116-2.603c-1.304,0-2.629,0.295-3.936,0.875
		c-0.998,0.444-1.857,0.994-2.563,1.643v-1.978h-4.125V35.12h4.125v-9.816c0.753,0.719,1.627,1.309,2.61,1.756
		c1.261,0.576,2.569,0.868,3.889,0.868c2.772,0,5.14-0.887,7.036-2.636c1.905-1.757,2.869-3.893,2.869-6.354
		C66.535,16.364,65.597,14.18,63.746,12.446 M62.311,18.868c0,1.681-0.554,3.015-1.692,4.083c-1.128,1.058-2.604,1.593-4.389,1.593
		c-1.64,0-3.084-0.563-4.291-1.675c-1.218-1.118-1.809-2.428-1.809-4.001c0-1.618,0.582-2.932,1.776-4.016
		c1.188-1.078,2.629-1.625,4.283-1.625c1.85,0,3.35,0.53,4.459,1.577C61.767,15.859,62.311,17.188,62.311,18.868"/>
	<path fill="#FFFFFF" d="M84.868,12.428c-0.744-0.715-1.608-1.297-2.582-1.735c-1.254-0.563-2.559-0.849-3.877-0.849
		c-2.771,0-5.137,0.881-7.026,2.618c-1.897,1.745-2.86,3.877-2.86,6.337c0,2.574,0.935,4.764,2.778,6.507
		c1.836,1.741,4.229,2.622,7.108,2.622c1.304,0,2.608-0.286,3.876-0.848c0.98-0.438,1.846-0.999,2.583-1.677v1.984h4.125V10.384
		h-4.125V12.428z M84.868,18.868c0,1.619-0.579,2.94-1.77,4.035c-1.181,1.088-2.611,1.641-4.253,1.641
		c-1.848,0-3.348-0.535-4.455-1.592c-1.119-1.066-1.663-2.402-1.663-4.084c0-1.68,0.545-3.008,1.67-4.063
		c1.116-1.047,2.587-1.578,4.369-1.578c1.642,0,3.086,0.558,4.294,1.659C84.276,15.994,84.868,17.296,84.868,18.868"/>
	<path fill="#FFFFFF" d="M107.402,11.589c-1.197-1.158-2.878-1.745-4.992-1.745c-2.086,0-4.021,0.714-5.762,2.126V1.327h-4.125
		v26.06h4.125v-11.42c1.583-1.818,3.246-2.74,4.946-2.74c1.221,0,2.117,0.288,2.663,0.858c0.55,0.574,0.828,1.533,0.828,2.85v10.452
		h4.126V16.186C109.211,14.296,108.603,12.749,107.402,11.589"/>
	<path fill="#FFFFFF" d="M3.361,35.012l-2.808,1.452c-0.322,0.166-0.54,0.504-0.54,0.892c0,0.556,0.449,1.005,1.004,1.005
		c0.387,0,0.722-0.219,0.889-0.539L3.361,35.012z"/>
	<path fill="#FFFFFF" d="M37.983,37.152l-1.772-0.925l0.923,1.788c0.106,0.203,0.318,0.346,0.565,0.346
		c0.353,0,0.639-0.285,0.639-0.639C38.338,37.472,38.192,37.256,37.983,37.152"/>
	<path fill="#FFFFFF" d="M5.482,5.495L3.118,0.925C2.846,0.394,2.294,0.029,1.656,0.028c-0.907,0-1.643,0.737-1.643,1.643
		c0,0.616,0.339,1.151,0.84,1.434l0,0L5.482,5.495z"/>
	<path fill="#FFFFFF" d="M38.064,0.029c-0.135,0-0.251,0.073-0.314,0.181l-0.546,1.047l1.04-0.547
		c0.11-0.063,0.185-0.18,0.185-0.315C38.429,0.192,38.266,0.029,38.064,0.029"/>
	<path fill="#FFFFFF" d="M38.35,14.603C38.35,6.538,31.812,0,23.747,0c-4.488,0-8.219,3.239-8.983,7.507
		c-1.118-0.857-2.502-1.363-4.001-1.363C4.818,6.144,0,11.12,0,17.258c0,8.539,5.744,15.691,13.454,17.572
		c0.551,0.137,1.217,0.396,1.818,0.688c0.326,0.151,0.511,0.623,0.205,0.993l0,0.002c-0.157,0.188-0.252,0.432-0.252,0.699
		c0,0.587,0.46,1.064,1.03,1.064c0.053,0,0.103-0.004,0.154-0.012C28.679,37.349,38.35,27.106,38.35,14.603 M23.611,31.168
		c-4.207-5.752-6.69-12.845-6.69-20.518h0.007c0-3.78,2.968-6.845,6.629-6.845c5.857,0,10.605,4.904,10.605,10.952
		C34.162,22.14,29.81,28.471,23.611,31.168L23.611,31.168z"/>
</g>
</svg>
