<?xml version="1.0" encoding="utf-8"?>
<!-- Generator: Adobe Illustrator 16.0.0, SVG Export Plug-In . SVG Version: 6.00 Build 0)  -->
<!DOCTYPE svg PUBLIC "-//W3C//DTD SVG 1.1//EN" "http://www.w3.org/Graphics/SVG/1.1/DTD/svg11.dtd">
<svg version="1.1" id="Layer_1" xmlns="http://www.w3.org/2000/svg" xmlns:xlink="http://www.w3.org/1999/xlink" x="0px" y="0px"
	 width="109.211px" height="38.361px" viewBox="0 0 109.211 38.361" enable-background="new 0 0 109.211 38.361"
	 xml:space="preserve">
<g>
	<path fill="#FFFFFF" d="M63.746,12.446c-1.844-1.727-4.238-2.603-7.117-2.603c-1.304,0-2.629,0.295-3.936,0.875
		c-0.998,0.444-1.857,0.994-2.563,1.643v-1.978h-4.125v24.735h4.125v-9.816c0.753,0.719,1.627,1.309,2.61,1.756
		c1.261,0.576,2.568,0.869,3.889,0.869c2.773,0,5.141-0.887,7.037-2.637c1.904-1.756,2.869-3.893,2.869-6.354
		C66.535,16.364,65.598,14.18,63.746,12.446 M62.311,18.868c0,1.681-0.553,3.015-1.691,4.083c-1.129,1.057-2.605,1.592-4.389,1.592
		c-1.64,0-3.084-0.563-4.292-1.674c-1.218-1.119-1.809-2.428-1.809-4.001c0-1.618,0.582-2.932,1.776-4.016
		c1.188-1.078,2.629-1.625,4.283-1.625c1.85,0,3.35,0.53,4.459,1.577C61.768,15.859,62.311,17.188,62.311,18.868"/>
	<path fill="#FFFFFF" d="M84.867,12.428c-0.744-0.715-1.607-1.297-2.582-1.735c-1.254-0.563-2.559-0.849-3.877-0.849
		c-2.771,0-5.137,0.881-7.025,2.618c-1.898,1.745-2.861,3.877-2.861,6.337c0,2.575,0.936,4.764,2.779,6.506
		c1.836,1.742,4.229,2.623,7.107,2.623c1.305,0,2.609-0.287,3.877-0.848c0.98-0.438,1.846-1,2.582-1.678v1.984h4.125V10.384h-4.125
		V12.428z M84.867,18.868c0,1.619-0.578,2.941-1.77,4.035c-1.18,1.088-2.611,1.641-4.252,1.641c-1.848,0-3.348-0.535-4.455-1.592
		c-1.119-1.066-1.664-2.402-1.664-4.083c0-1.68,0.545-3.008,1.67-4.063c1.117-1.047,2.588-1.578,4.369-1.578
		c1.643,0,3.086,0.558,4.295,1.659C84.275,15.994,84.867,17.296,84.867,18.868"/>
	<path fill="#FFFFFF" d="M107.402,11.589c-1.197-1.158-2.879-1.745-4.992-1.745c-2.086,0-4.021,0.714-5.762,2.126V1.327h-4.125
		v26.06h4.125V15.967c1.582-1.818,3.246-2.74,4.945-2.74c1.221,0,2.117,0.288,2.664,0.858c0.549,0.574,0.828,1.533,0.828,2.85
		v10.452h4.125V16.186C109.211,14.296,108.604,12.749,107.402,11.589"/>
	<path fill="#FFFFFF" d="M3.361,35.012l-2.808,1.453c-0.322,0.166-0.54,0.504-0.54,0.891c0,0.557,0.449,1.006,1.004,1.006
		c0.387,0,0.722-0.219,0.889-0.539L3.361,35.012z"/>
	<path fill="#FFFFFF" d="M37.983,37.152l-1.772-0.926l0.923,1.789c0.106,0.203,0.318,0.346,0.565,0.346
		c0.353,0,0.639-0.285,0.639-0.639C38.338,37.473,38.192,37.256,37.983,37.152"/>
	<path fill="#FFFFFF" d="M5.482,5.495L3.118,0.925C2.846,0.394,2.294,0.029,1.656,0.028c-0.907,0-1.643,0.737-1.643,1.643
		c0,0.616,0.339,1.151,0.84,1.434l0,0L5.482,5.495z"/>
	<path fill="#FFFFFF" d="M38.064,0.029c-0.135,0-0.251,0.073-0.314,0.181l-0.546,1.047l1.04-0.547
		c0.11-0.063,0.185-0.18,0.185-0.315C38.429,0.192,38.266,0.029,38.064,0.029"/>
	<path fill="#FFFFFF" d="M38.35,14.603C38.35,6.538,31.812,0,23.747,0c-4.488,0-8.219,3.239-8.983,7.507
		c-1.118-0.857-2.502-1.363-4.001-1.363C4.818,6.144,0,11.12,0,17.258c0,8.539,5.744,15.691,13.454,17.572
		c0.551,0.137,1.217,0.396,1.818,0.688c0.326,0.152,0.511,0.623,0.205,0.994l0,0.002c-0.157,0.188-0.252,0.432-0.252,0.699
		c0,0.586,0.46,1.064,1.03,1.064c0.053,0,0.103-0.004,0.154-0.012C28.679,37.35,38.35,27.105,38.35,14.603 M23.611,31.168
		c-4.207-5.752-6.69-12.844-6.69-20.517h0.007c0-3.78,2.968-6.845,6.629-6.845c5.857,0,10.605,4.904,10.605,10.952
		C34.162,22.141,29.81,28.471,23.611,31.168L23.611,31.168z"/>
</g>
</svg>
