<?xml version="1.0" encoding="utf-8"?>
<!-- Generator: Adobe Illustrator 16.0.0, SVG Export Plug-In . SVG Version: 6.00 Build 0)  -->
<!DOCTYPE svg PUBLIC "-//W3C//DTD SVG 1.1//EN" "http://www.w3.org/Graphics/SVG/1.1/DTD/svg11.dtd">
<svg version="1.1" id="Layer_1" xmlns="http://www.w3.org/2000/svg" xmlns:xlink="http://www.w3.org/1999/xlink" x="0px" y="0px"
	 width="278.844px" height="366.459px" viewBox="0 0 278.844 366.459" enable-background="new 0 0 278.844 366.459"
	 xml:space="preserve">
<g>
	<g>
		<path fill="#0770B8" d="M246.318,118.475H19.158c-5.045,0-8.549-5.015-6.821-9.752L50.287,4.771C51.335,1.906,54.062,0,57.109,0
			h151.26c3.052,0,5.776,1.906,6.822,4.771l37.948,103.952C254.871,113.461,251.359,118.475,246.318,118.475L246.318,118.475z"/>
	</g>
	<polygon fill="#0770B8" points="74.599,236.95 57.045,236.95 57.045,99.827 74.599,99.827 	"/>
	<polygon fill="#0770B8" points="204.352,236.95 186.803,236.95 186.803,99.827 204.352,99.827 	"/>
	<path fill="#0770B8" d="M257.247,244.096H7.132C3.193,244.096,0,240.9,0,236.963l0,0c0-3.937,3.193-7.13,7.132-7.13h250.114
		c3.938,0,7.129,3.193,7.129,7.13l0,0C264.377,240.9,261.186,244.096,257.247,244.096L257.247,244.096z"/>
	<polygon fill="#0770B8" points="139.89,138.995 130.713,138.995 120.665,180.195 129.85,180.195 	"/>
	<polygon fill="#0770B8" points="127.532,138.995 118.354,138.995 108.312,180.195 117.488,180.195 	"/>
	<polygon fill="#0770B8" points="115.175,138.995 105.996,138.995 95.95,180.195 105.134,180.195 	"/>
	<polygon fill="#0770B8" points="83.597,180.195 92.772,180.195 102.82,138.995 93.639,138.995 	"/>
	<polygon fill="#0770B8" points="152.252,138.995 143.065,138.995 133.027,180.195 142.202,180.195 	"/>
	<polygon fill="#0770B8" points="90.461,138.995 65.556,138.995 65.556,180.195 80.415,180.195 	"/>
	<polygon fill="#0770B8" points="180.142,138.995 170.097,180.195 195.933,180.195 195.933,138.995 	"/>
	<polygon fill="#0770B8" points="164.603,138.995 155.428,138.995 145.382,180.195 154.563,180.195 	"/>
	<polygon fill="#0770B8" points="176.966,138.995 167.783,138.995 157.739,180.195 166.919,180.195 	"/>
	<path fill="#0770B8" d="M201.608,169.186h29.347c1.876,0,3.4,1.521,3.4,3.397v17.92c0,1.876,1.522,3.398,3.396,3.398h37.69
		c1.878,0,3.402-1.522,3.402-3.398l0,0c0-1.876-1.524-3.396-3.402-3.396h-30.896c-1.874,0-3.396-1.523-3.396-3.4v-17.918
		c0-1.876-1.521-3.397-3.396-3.397h-32.748c-1.877,0-3.396,1.521-3.396,3.397L201.608,169.186L201.608,169.186L201.608,169.186z"/>
	<path fill="#0770B8" d="M60.112,162.391H29.523c-1.874,0-3.396,1.521-3.396,3.397l0,0c0,1.877,1.522,3.398,3.396,3.398h30.589"/>
	<path fill="#0770B8" d="M246.267,366.459H21.958c-3.14,0-5.685-2.544-5.685-5.679V253.064c0-3.137,2.545-5.682,5.685-5.682h224.31
		c3.133,0,5.677,2.545,5.677,5.682V360.78C251.944,363.915,249.399,366.459,246.267,366.459L246.267,366.459z"/>
	<g>
		<path fill="#0770B8" d="M238.483,358.402H30.267c-2.427,0-4.4-1.973-4.4-4.403v-66.097h217.021v66.097
			C242.886,356.434,240.912,358.402,238.483,358.402L238.483,358.402z"/>
		<path fill="#0770B8" d="M30.271,257.167h208.216c2.427,0,4.4,1.973,4.4,4.403v28.332H25.866V261.57
			C25.867,259.136,27.841,257.167,30.271,257.167L30.271,257.167z"/>
	</g>
</g>
</svg>
