<?xml version="1.0" encoding="utf-8"?>
<!-- Generator: Adobe Illustrator 16.0.0, SVG Export Plug-In . SVG Version: 6.00 Build 0)  -->
<!DOCTYPE svg PUBLIC "-//W3C//DTD SVG 1.1//EN" "http://www.w3.org/Graphics/SVG/1.1/DTD/svg11.dtd">
<svg version="1.1" id="Layer_1" xmlns="http://www.w3.org/2000/svg" xmlns:xlink="http://www.w3.org/1999/xlink" x="0px" y="0px"
	 width="190.005px" height="249.705px" viewBox="0 0 190.005 249.705" enable-background="new 0 0 190.005 249.705"
	 xml:space="preserve">
<g>
	<g>
		<path fill="#0770B8" d="M167.841,80.729H13.054c-3.437,0-5.825-3.417-4.648-6.645L34.265,3.251C34.979,1.299,36.837,0,38.913,0
			h103.068c2.079,0,3.935,1.299,4.648,3.251l25.859,70.833C173.669,77.313,171.276,80.729,167.841,80.729L167.841,80.729z"/>
	</g>
	<polygon fill="#0770B8" points="50.831,161.458 38.871,161.458 38.871,68.022 50.831,68.022 50.831,161.458 	"/>
	<polygon fill="#0770B8" points="139.244,161.458 127.288,161.458 127.288,68.022 139.244,68.022 139.244,161.458 	"/>
	<path fill="#0770B8" d="M175.288,166.326H4.86c-2.684,0-4.86-2.176-4.86-4.859l0,0c0-2.683,2.177-4.859,4.86-4.859h170.428
		c2.684,0,4.857,2.176,4.857,4.859l0,0C180.146,164.15,177.972,166.326,175.288,166.326L175.288,166.326z"/>
	<polygon fill="#0770B8" points="95.321,94.711 89.068,94.711 82.22,122.785 88.479,122.785 95.321,94.711 	"/>
	<polygon fill="#0770B8" points="86.9,94.711 80.646,94.711 73.803,122.785 80.056,122.785 86.9,94.711 	"/>
	<polygon fill="#0770B8" points="78.48,94.711 72.225,94.711 65.38,122.785 71.638,122.785 78.48,94.711 	"/>
	<polygon fill="#0770B8" points="56.963,122.785 63.215,122.785 70.061,94.711 63.805,94.711 56.963,122.785 	"/>
	<polygon fill="#0770B8" points="103.744,94.711 97.485,94.711 90.644,122.785 96.896,122.785 103.744,94.711 	"/>
	<polygon fill="#0770B8" points="61.64,94.711 44.67,94.711 44.67,122.785 54.795,122.785 61.64,94.711 	"/>
	<polygon fill="#0770B8" points="122.749,94.711 115.904,122.785 133.508,122.785 133.508,94.711 122.749,94.711 	"/>
	<polygon fill="#0770B8" points="112.161,94.711 105.909,94.711 99.063,122.785 105.319,122.785 112.161,94.711 	"/>
	<polygon fill="#0770B8" points="120.584,94.711 114.326,94.711 107.483,122.785 113.739,122.785 120.584,94.711 	"/>
	<path fill="#0770B8" d="M137.375,115.284h19.996c1.279,0,2.318,1.037,2.318,2.315v12.21c0,1.279,1.038,2.316,2.314,2.316h25.683
		c1.28,0,2.318-1.037,2.318-2.316l0,0c0-1.278-1.038-2.315-2.318-2.315h-21.052c-1.277,0-2.315-1.037-2.315-2.316v-12.21
		c0-1.278-1.035-2.315-2.315-2.315h-22.314c-1.279,0-2.314,1.037-2.314,2.315V115.284L137.375,115.284L137.375,115.284z"/>
	<path fill="#0770B8" d="M40.96,110.653H20.117c-1.277,0-2.315,1.037-2.315,2.315l0,0c0,1.279,1.038,2.316,2.315,2.316H40.96"/>
	<path fill="#0770B8" d="M167.806,249.705H14.962c-2.139,0-3.873-1.733-3.873-3.87v-73.397c0-2.137,1.734-3.87,3.873-3.87h152.844
		c2.135,0,3.869,1.733,3.869,3.87v73.397C171.675,247.972,169.94,249.705,167.806,249.705L167.806,249.705z"/>
	<path fill="#FFFFFF" d="M162.503,244.215H20.624c-1.654,0-2.999-1.343-2.999-3v-17.943h147.877v17.943
		C165.502,242.873,164.157,244.215,162.503,244.215L162.503,244.215z"/>
</g>
</svg>
