<?xml version="1.0" encoding="utf-8"?>
<!-- Generator: Adobe Illustrator 16.0.0, SVG Export Plug-In . SVG Version: 6.00 Build 0)  -->
<!DOCTYPE svg PUBLIC "-//W3C//DTD SVG 1.1//EN" "http://www.w3.org/Graphics/SVG/1.1/DTD/svg11.dtd">
<svg version="1.1" id="Layer_1" xmlns="http://www.w3.org/2000/svg" xmlns:xlink="http://www.w3.org/1999/xlink" x="0px" y="0px"
	 width="190.017px" height="249.722px" viewBox="0 116.737 190.017 249.722" enable-background="new 0 116.737 190.017 249.722"
	 xml:space="preserve">
<g>
	<g>
		<path fill="#0770B8" d="M167.853,197.472H13.055c-3.438,0-5.825-3.418-4.648-6.646l25.861-70.838
			c0.714-1.952,2.572-3.251,4.649-3.251h103.075c2.08,0,3.937,1.299,4.648,3.251l25.86,70.838
			C173.681,194.055,171.286,197.472,167.853,197.472L167.853,197.472z"/>
	</g>
	<polygon fill="#0770B8" points="50.835,278.206 38.873,278.206 38.873,184.765 50.835,184.765 	"/>
	<polygon fill="#0770B8" points="139.254,278.206 127.296,278.206 127.296,184.765 139.254,184.765 	"/>
	<path fill="#0770B8" d="M175.3,283.075H4.86c-2.685,0-4.86-2.178-4.86-4.86l0,0c0-2.683,2.176-4.858,4.86-4.858h170.439
		c2.685,0,4.857,2.176,4.857,4.858l0,0C180.158,280.897,177.985,283.075,175.3,283.075L175.3,283.075z"/>
	<polygon fill="#0770B8" points="95.327,211.454 89.074,211.454 82.227,239.53 88.486,239.53 	"/>
	<polygon fill="#0770B8" points="86.906,211.454 80.652,211.454 73.808,239.53 80.061,239.53 	"/>
	<polygon fill="#0770B8" points="78.486,211.454 72.231,211.454 65.385,239.53 71.643,239.53 	"/>
	<polygon fill="#0770B8" points="56.967,239.53 63.219,239.53 70.066,211.454 63.81,211.454 	"/>
	<polygon fill="#0770B8" points="103.751,211.454 97.491,211.454 90.651,239.53 96.903,239.53 	"/>
	<polygon fill="#0770B8" points="61.644,211.454 44.673,211.454 44.673,239.53 54.799,239.53 	"/>
	<polygon fill="#0770B8" points="122.757,211.454 115.912,239.53 133.517,239.53 133.517,211.454 	"/>
	<polygon fill="#0770B8" points="112.168,211.454 105.916,211.454 99.07,239.53 105.326,239.53 	"/>
	<polygon fill="#0770B8" points="120.593,211.454 114.335,211.454 107.49,239.53 113.746,239.53 	"/>
	<path fill="#0770B8" d="M137.385,232.028h19.999c1.278,0,2.316,1.037,2.316,2.314v12.212c0,1.278,1.038,2.315,2.315,2.315h25.684
		c1.28,0,2.318-1.037,2.318-2.315l0,0c0-1.278-1.038-2.314-2.318-2.314h-21.054c-1.277,0-2.314-1.038-2.314-2.317v-12.21
		c0-1.278-1.036-2.314-2.314-2.314H139.7c-1.279,0-2.314,1.036-2.314,2.314L137.385,232.028L137.385,232.028L137.385,232.028z"/>
	<path fill="#0770B8" d="M40.963,227.398H20.118c-1.277,0-2.315,1.036-2.315,2.314l0,0c0,1.279,1.038,2.315,2.315,2.315h20.844"/>
	<path fill="#0770B8" d="M167.818,366.459H14.964c-2.14,0-3.874-1.733-3.874-3.869v-73.403c0-2.138,1.734-3.871,3.874-3.871h152.854
		c2.135,0,3.868,1.733,3.868,3.871v73.403C171.686,364.726,169.951,366.459,167.818,366.459L167.818,366.459z"/>
	<g>
		<path fill="#0770B8" d="M162.513,360.969H20.625c-1.654,0-2.999-1.345-2.999-3.001v-45.04h147.888v45.04
			C165.514,359.627,164.168,360.969,162.513,360.969L162.513,360.969z"/>
		<path fill="#0770B8" d="M20.628,291.982h141.887c1.654,0,3,1.345,3,3.001v19.307H17.627v-19.307
			C17.627,293.324,18.972,291.982,20.628,291.982L20.628,291.982z"/>
	</g>
</g>
</svg>
