<?xml version="1.0" encoding="utf-8"?>
<!-- Generator: Adobe Illustrator 16.0.0, SVG Export Plug-In . SVG Version: 6.00 Build 0)  -->
<!DOCTYPE svg PUBLIC "-//W3C//DTD SVG 1.1//EN" "http://www.w3.org/Graphics/SVG/1.1/DTD/svg11.dtd">
<svg version="1.1" id="Layer_1" xmlns="http://www.w3.org/2000/svg" xmlns:xlink="http://www.w3.org/1999/xlink" x="0px" y="0px"
	 width="315.556px" height="414.707px" viewBox="0 -81.743 315.556 414.707" enable-background="new 0 -81.743 315.556 414.707"
	 xml:space="preserve">
<g>
	<g>
		<path fill="#0770B8" d="M278.748,52.331H21.68c-5.708,0-9.674-5.675-7.72-11.036L56.907-76.344
			c1.186-3.242,4.272-5.399,7.72-5.399H235.8c3.453,0,6.537,2.157,7.721,5.399l42.945,117.639
			C288.426,46.657,284.453,52.331,278.748,52.331L278.748,52.331z"/>
	</g>
	<polygon fill="#0770B8" points="84.42,186.404 64.556,186.404 64.556,31.227 84.42,31.227 	"/>
	<polygon fill="#0770B8" points="231.256,186.404 211.398,186.404 211.398,31.227 231.256,31.227 	"/>
	<path fill="#0770B8" d="M291.116,194.489H8.071c-4.458,0-8.071-3.615-8.071-8.07l0,0c0-4.455,3.615-8.069,8.071-8.069h283.044
		c4.458,0,8.067,3.614,8.067,8.069l0,0C299.185,190.874,295.574,194.489,291.116,194.489L291.116,194.489z"/>
	<polygon fill="#0770B8" points="158.308,75.552 147.923,75.552 136.551,122.177 146.946,122.177 	"/>
	<polygon fill="#0770B8" points="144.322,75.552 133.936,75.552 122.572,122.177 132.957,122.177 	"/>
	<polygon fill="#0770B8" points="130.339,75.552 119.951,75.552 108.583,122.177 118.976,122.177 	"/>
	<polygon fill="#0770B8" points="94.604,122.177 104.987,122.177 116.357,75.552 105.967,75.552 	"/>
	<polygon fill="#0770B8" points="172.298,75.552 161.901,75.552 150.541,122.177 160.923,122.177 	"/>
	<polygon fill="#0770B8" points="102.372,75.552 74.187,75.552 74.187,122.177 91.002,122.177 	"/>
	<polygon fill="#0770B8" points="203.859,75.552 192.492,122.177 221.729,122.177 221.729,75.552 	"/>
	<polygon fill="#0770B8" points="186.275,75.552 175.891,75.552 164.523,122.177 174.913,122.177 	"/>
	<polygon fill="#0770B8" points="200.265,75.552 189.873,75.552 178.506,122.177 188.896,122.177 	"/>
	<path fill="#0770B8" d="M228.151,109.719h33.21c2.123,0,3.849,1.722,3.849,3.845v20.279c0,2.123,1.724,3.846,3.843,3.846h42.654
		c2.125,0,3.85-1.723,3.85-3.846l0,0c0-2.123-1.725-3.845-3.85-3.845h-34.964c-2.12,0-3.844-1.724-3.844-3.848v-20.278
		c0-2.123-1.72-3.845-3.845-3.845h-37.06c-2.124,0-3.844,1.722-3.844,3.845V109.719L228.151,109.719L228.151,109.719z"/>
	<path fill="#0770B8" d="M68.026,102.028H33.41c-2.121,0-3.845,1.722-3.845,3.845l0,0c0,2.125,1.724,3.847,3.845,3.847h34.616"/>
	<path fill="#0770B8" d="M278.69,332.964H24.849c-3.552,0-6.433-2.879-6.433-6.427V204.641c0-3.551,2.88-6.43,6.433-6.43H278.69
		c3.546,0,6.425,2.879,6.425,6.43v121.896C285.115,330.085,282.235,332.964,278.69,332.964L278.69,332.964z"/>
	<path fill="#FFFFFF" d="M269.881,323.847H34.252c-2.747,0-4.981-2.231-4.981-4.983v-29.799h245.594v29.799
		C274.865,321.618,272.629,323.847,269.881,323.847L269.881,323.847z"/>
</g>
</svg>
