<?xml version="1.0" encoding="utf-8"?>
<!-- Generator: Adobe Illustrator 16.0.0, SVG Export Plug-In . SVG Version: 6.00 Build 0)  -->
<!DOCTYPE svg PUBLIC "-//W3C//DTD SVG 1.1//EN" "http://www.w3.org/Graphics/SVG/1.1/DTD/svg11.dtd">
<svg version="1.1" id="Layer_1" xmlns="http://www.w3.org/2000/svg" xmlns:xlink="http://www.w3.org/1999/xlink" x="0px" y="0px"
	 width="278.844px" height="366.459px" viewBox="0 -33.496 278.844 366.459" enable-background="new 0 -33.496 278.844 366.459"
	 xml:space="preserve">
<g>
	<g>
		<path fill="#0770B8" d="M246.318,84.98H19.158c-5.044,0-8.548-5.015-6.821-9.752l37.95-103.952
			c1.048-2.865,3.775-4.771,6.822-4.771h151.259c3.052,0,5.777,1.906,6.823,4.771l37.948,103.952
			C254.871,79.966,251.359,84.98,246.318,84.98L246.318,84.98z"/>
	</g>
	<polygon fill="#0770B8" points="74.599,203.455 57.045,203.455 57.045,66.332 74.599,66.332 	"/>
	<polygon fill="#0770B8" points="204.352,203.455 186.803,203.455 186.803,66.332 204.352,66.332 	"/>
	<path fill="#0770B8" d="M257.247,210.6H7.132C3.193,210.6,0,207.405,0,203.468l0,0c0-3.937,3.194-7.13,7.132-7.13h250.114
		c3.939,0,7.129,3.193,7.129,7.13l0,0C264.377,207.405,261.186,210.6,257.247,210.6L257.247,210.6z"/>
	<polygon fill="#0770B8" points="139.89,105.5 130.713,105.5 120.665,146.7 129.85,146.7 	"/>
	<polygon fill="#0770B8" points="127.532,105.5 118.354,105.5 108.312,146.7 117.488,146.7 	"/>
	<polygon fill="#0770B8" points="115.175,105.5 105.996,105.5 95.95,146.7 105.134,146.7 	"/>
	<polygon fill="#0770B8" points="83.597,146.7 92.772,146.7 102.82,105.5 93.639,105.5 	"/>
	<polygon fill="#0770B8" points="152.252,105.5 143.065,105.5 133.027,146.7 142.202,146.7 	"/>
	<polygon fill="#0770B8" points="90.461,105.5 65.556,105.5 65.556,146.7 80.415,146.7 	"/>
	<polygon fill="#0770B8" points="180.142,105.5 170.097,146.7 195.933,146.7 195.933,105.5 	"/>
	<polygon fill="#0770B8" points="164.603,105.5 155.428,105.5 145.382,146.7 154.563,146.7 	"/>
	<polygon fill="#0770B8" points="176.966,105.5 167.783,105.5 157.739,146.7 166.919,146.7 	"/>
	<path fill="#0770B8" d="M201.608,135.691h29.346c1.876,0,3.401,1.521,3.401,3.397v17.92c0,1.876,1.522,3.398,3.396,3.398h37.691
		c1.878,0,3.402-1.522,3.402-3.398l0,0c0-1.876-1.524-3.397-3.402-3.397h-30.896c-1.874,0-3.396-1.523-3.396-3.4v-17.918
		c0-1.876-1.521-3.397-3.397-3.397h-32.748c-1.877,0-3.396,1.521-3.396,3.397V135.691L201.608,135.691L201.608,135.691z"/>
	<path fill="#0770B8" d="M60.112,128.896H29.523c-1.874,0-3.397,1.521-3.397,3.397l0,0c0,1.877,1.523,3.398,3.397,3.398h30.589"/>
	<path fill="#0770B8" d="M246.267,332.964H21.958c-3.139,0-5.684-2.544-5.684-5.679V219.57c0-3.138,2.545-5.682,5.684-5.682h224.31
		c3.133,0,5.677,2.544,5.677,5.682v107.715C251.944,330.42,249.399,332.964,246.267,332.964L246.267,332.964z"/>
	<path fill="#FFFFFF" d="M238.483,324.907H30.267c-2.427,0-4.401-1.972-4.401-4.403v-26.332h217.021v26.332
		C242.886,322.938,240.912,324.907,238.483,324.907L238.483,324.907z"/>
</g>
</svg>
