<?xml version="1.0" encoding="utf-8"?>
<!-- Generator: Adobe Illustrator 16.0.0, SVG Export Plug-In . SVG Version: 6.00 Build 0)  -->
<!DOCTYPE svg PUBLIC "-//W3C//DTD SVG 1.1//EN" "http://www.w3.org/Graphics/SVG/1.1/DTD/svg11.dtd">
<svg version="1.1" id="Layer_1" xmlns="http://www.w3.org/2000/svg" xmlns:xlink="http://www.w3.org/1999/xlink" x="0px" y="0px"
	 width="23.944px" height="38.924px" viewBox="0 0 23.944 38.924" enable-background="new 0 0 23.944 38.924" xml:space="preserve">
<path fill="#0770B8" d="M23.944,26.536c0-2.027-0.512-4.081-1.329-6.163c-1.229-3.125-3.144-6.321-5.097-9.605
	c-1.952-3.285-3.94-6.659-5.319-10.122L11.941,0l-0.264,0.645C9.763,5.339,6.856,9.78,4.418,14.057
	c-1.218,2.139-2.32,4.237-3.121,6.311C0.498,22.441,0,24.494,0,26.536c0,0.144,0.001,0.288,0.007,0.433
	c0.115,3.294,1.451,6.283,3.587,8.447c2.136,2.166,5.074,3.508,8.378,3.508c6.605,0,11.959-5.352,11.965-11.955l0,0
	C23.942,26.824,23.944,26.681,23.944,26.536L23.944,26.536z"/>
</svg>
